<?xml version="1.0" encoding="utf-8"?>
<!-- Generator: Adobe Illustrator 20.1.0, SVG Export Plug-In . SVG Version: 6.00 Build 0)  -->
<svg version="1.1" id="Слой_1" xmlns="http://www.w3.org/2000/svg" xmlns:xlink="http://www.w3.org/1999/xlink" x="0px" y="0px"
	 width="97px" height="97px" viewBox="0 0 97 97" enable-background="new 0 0 97 97" xml:space="preserve">
<path id="_24" fill="#FFFFFF" d="M45.4,24.2c0-3.8-2.6-6-6.6-6c-2.6-0.2-5.1,1.1-6.4,3.4c-0.5,0.7-0.8,1.5-0.9,2.4
	c0,0.2,0.1,0.4,0.4,0.4l2.8,1c0.1,0,0.2,0.1,0.3,0.1c0.2,0,0.5-0.2,0.5-0.4c0.7-1.6,1.3-2.7,3-2.7c1.1-0.1,2.1,0.6,2.2,1.7
	c0,0.2,0,0.3,0,0.5c0,2.3-1.6,3.3-4.9,5.9c-2.2,1.8-4.2,3.9-4.2,7.9v1.3c0,0.5,0.1,0.5,0.5,0.5h12.5c0.5,0,0.6-0.1,0.6-0.7v-3
	c0-0.5-0.1-0.6-0.7-0.6h-7.5c0.4-1.2,1.2-2.3,2.3-2.9l1.6-1.2C43.9,29.6,45.4,27.9,45.4,24.2z M65.5,35.5V33c0-0.7,0-0.8-0.6-0.8
	h-1.7v-4.6c0-0.5-0.1-0.7-0.6-0.7h-2.8c-0.5,0-0.6,0.1-0.6,0.6l-0.6,4.6h-4.4L62,20.4c0.1-0.1,0.2-0.3,0.2-0.5
	c-0.1-0.2-0.3-0.4-0.5-0.4l-3.2-1.3c-0.1-0.1-0.3-0.1-0.4-0.1c-0.2,0.1-0.4,0.2-0.4,0.4l-8.2,13.2v3.8c0,0.5,0.1,0.7,0.7,0.7h8.2
	v3.9c0,0.5,0.1,0.6,0.7,0.6h3.5c0.5,0,0.6,0,0.6-0.6v-3.9h1.7C65.5,36.1,65.5,36,65.5,35.5L65.5,35.5z"/>
<path id="_7" fill="#FFFFFF" d="M55,63.1v-1.7c0-0.6-0.1-0.7-0.6-0.7H41.8c-0.6,0-0.7,0.1-0.7,0.7v3.2c0,0.6,0.1,0.6,0.7,0.6h7.5
	l-6.6,15.9c-0.1,0.1-0.1,0.3-0.1,0.5c0,0.2,0.1,0.3,0.5,0.3l3.6,0.6c0.1,0,0.2,0,0.4,0c0.2,0,0.4-0.2,0.4-0.4L55,63.1z"/>
<circle id="Ellipse_5_copy" fill="#EDEDED" fill-opacity="0" stroke="#FFFFFF" stroke-width="4" stroke-linejoin="round" cx="48.5" cy="48.5" r="46.5"/>
<path fill="#EDEDED" d="M4,52v-4h89v4H4z"/>
</svg>
