<?xml version="1.0" encoding="utf-8"?>
<!-- Generator: Adobe Illustrator 20.1.0, SVG Export Plug-In . SVG Version: 6.00 Build 0)  -->
<svg version="1.1" id="Слой_1" xmlns="http://www.w3.org/2000/svg" xmlns:xlink="http://www.w3.org/1999/xlink" x="0px" y="0px"
	 width="97px" height="97px" viewBox="0 0 97 97" enable-background="new 0 0 97 97" xml:space="preserve">
<path id="_45-2" fill="#FFFFFF" d="M44.9,55.6v-3.5c0-1,0-1.1-0.9-1.1h-2.4v-6.5c0-0.8-0.1-0.9-0.9-0.9h-4c-0.8,0-0.8,0.1-0.9,0.9
	L35,50.8h-6.1L40,34.3c0.2-0.2,0.3-0.4,0.3-0.7c-0.1-0.3-0.4-0.5-0.7-0.6l-4.5-1.8c-0.2-0.1-0.4-0.2-0.6-0.2
	c-0.3,0.1-0.5,0.3-0.6,0.6L22.5,50.3v5.3c0,0.8,0.2,0.9,0.9,0.9h11.5v5.5c0,0.8,0.1,0.9,0.9,0.9h4.9c0.8,0,0.9,0,0.9-0.9v-5.5H44
	C44.9,56.5,44.9,56.3,44.9,55.6z M69.6,51.8c0-5.9-3.7-9.7-9.3-9.7c-1.4-0.1-2.8,0.3-4,1.1l0.5-5.1h9.6c0.8,0,0.9-0.1,0.9-0.9V33
	c0-0.9-0.1-1-0.9-1H52c-0.8,0-0.9,0.1-1,0.9l-1.4,14.7c0,0.1,0,0.3,0,0.4c0,0.4,0.3,0.7,0.7,0.7c0,0,0,0,0,0l3.7,1.2
	c0.1,0,0.2,0,0.3,0c0.3,0,0.5-0.1,0.7-0.4c1-1.3,2.6-2.1,4.3-2c2.5,0,4,1.4,4,4.3c0,3.5-2.3,5.5-5.9,5.5c-2.2-0.1-4.3-0.5-6.3-1.2
	c-0.2-0.1-0.3-0.1-0.5-0.1c-0.3,0-0.5,0.2-0.5,0.5c0,0,0,0,0,0l-0.8,4.1c0,0.1,0,0.2,0,0.3c0,1.4,6.5,2.3,8.2,2.3
	C64.7,63.3,69.6,58.9,69.6,51.8L69.6,51.8z"/>
<circle fill="#EDEDED" fill-opacity="0" stroke="#FFFFFF" stroke-width="4" stroke-linejoin="round" cx="48.5" cy="48.5" r="46.5"/>
<path fill="#FFFFFF" d="M48,4h4v50h-4V4z M2,54v-5h49v5H2z"/>
</svg>
