<?xml version="1.0" encoding="utf-8"?>
<!-- Generator: Adobe Illustrator 20.1.0, SVG Export Plug-In . SVG Version: 6.00 Build 0)  -->
<svg version="1.1" id="Слой_1" xmlns="http://www.w3.org/2000/svg" xmlns:xlink="http://www.w3.org/1999/xlink" x="0px" y="0px"
	 width="49px" height="35px" viewBox="0 0 49 35" enable-background="new 0 0 49 35" xml:space="preserve">
<g>
	<path fill="#ffffff" d="M14.7,16.6c-0.5-0.4-1-0.7-1.6-0.9l-1.4,1.4l-6.5,7.1h10h1.9c0.2-1,0.3-1.2,0.3-1.9l0,0
		C17.4,20,16.4,17.9,14.7,16.6z M9.7,22.2l3.7-4.3c1.4,0.9,2.3,2.5,2.3,4.3l0,0C15.7,22.2,9.7,22.2,9.7,22.2z"/>
	<g>
		<path fill="#ffffff" d="M40.9,34.8c-4.5,0-8.1-3.8-8.1-8.4s3.6-8.4,8.1-8.4s8.1,3.8,8.1,8.4S45.4,34.8,40.9,34.8z M40.9,20.1
			c-3.4,0-6.2,2.9-6.2,6.4s2.8,6.4,6.2,6.4s6.2-2.9,6.2-6.4S44.3,20.1,40.9,20.1z"/>
	</g>
	<g>
		<path fill="#ffffff" d="M11.8,34.6c-4.5,0-8.1-4.4-8.1-8.4h1.9c0,3,2.8,6.4,6.2,6.4s6.2-3.4,6.2-6.4h1.9
			C19.9,30.2,16.3,34.6,11.8,34.6z"/>
	</g>
	<g>
		<path fill="#ffffff" d="M35,28.6L3.6,28.5c-1.3-0.3-2.4-0.9-3-1.9c-0.8-1.3-0.6-2.8-0.4-3.8c0.6-3.4,0.7-3.7,1.5-7.2v-0.2
			c0.1-0.4,0.3-1.2,1-1.9c0.6-0.6,1.4-0.8,1.9-0.8c4.4-0.2,8.2,0,10.4,0.1l1,0.1c0.3,0,1.1,0.1,1.9,0.6s1.1,1.2,1.2,1.5
			c1.7,3.4,1.9,4.5,2.6,7.3l0.3,1.1c0.3,1,0.5,1.9,0.6,3h-1h13.3v2.2H35z M3.8,26.2h16.9c-0.1-1-0.3-1.7-0.5-2.6l-0.3-1
			c-0.7-2.8-0.9-3.7-2.5-6.9c-0.1-0.1-0.2-0.5-0.6-0.7c-0.3-0.2-0.7-0.2-0.9-0.2h-1c-2.2-0.1-5.9-0.3-10.2-0.1
			c-0.1,0-0.4,0.1-0.7,0.3c-0.3,0.3-0.4,0.7-0.4,0.9v0.2c-0.8,3.4-0.9,3.8-1.5,7.1c-0.2,1-0.3,1.6,0.1,2.2C2.6,26,3.2,26.2,3.8,26.2
			z"/>
	</g>
	<g>
		<path fill="#ffffff" d="M40,26.8l-6.3-14.1c-0.2-0.4-0.7-1.4-1.4-1.7c-0.4-0.2-0.8-0.1-1.3,0.1c-0.7,0.3-1.3,0.5-2,0.8
			c-0.3,0.1-0.6,0.2-0.9,0.3l-0.7-1.9c0.3-0.1,0.7-0.2,1-0.4c0.6-0.2,1.2-0.4,1.8-0.7c1-0.4,1.9-0.5,2.8-0.1
			c1.7,0.7,2.4,2.5,2.5,2.7l6.3,14.1L40,26.8z"/>
	</g>
	<g>
		<path fill="#ffffff" d="M18.2,10.2H4.6c-0.5,0-1-0.4-1-1s0.4-1,1-1h13.6c0.5,0,1,0.4,1,1S18.8,10.2,18.2,10.2z"/>
	</g>
	<g>
		<path fill="#ffffff" d="M18.2,6.2H4.6c-0.5,0-1-0.4-1-1s0.4-1,1-1h13.6c0.5,0,1,0.4,1,1S18.8,6.2,18.2,6.2z"/>
	</g>
	<g>
		<path fill="#ffffff" d="M18.2,2.2H4.6c-0.5,0-1-0.4-1-1s0.4-1,1-1h13.6c0.5,0,1,0.4,1,1S18.8,2.2,18.2,2.2z"/>
	</g>
</g>
</svg>
