<?xml version="1.0" encoding="utf-8"?>
<!-- Generator: Adobe Illustrator 20.1.0, SVG Export Plug-In . SVG Version: 6.00 Build 0)  -->
<svg version="1.1" id="Слой_1" xmlns="http://www.w3.org/2000/svg" xmlns:xlink="http://www.w3.org/1999/xlink" x="0px" y="0px"
	 width="68px" height="58px" viewBox="0 0 68 58" enable-background="new 0 0 68 58" xml:space="preserve">
<g>
	<g>
		<path fill="#D24A43" d="M34,57.8c-0.6,0-1.2-0.1-1.8-0.2c-0.3-0.1-0.5-0.1-0.7-0.2h-0.1c-0.3-0.1-0.6-0.2-0.9-0.4
			C30.2,56.8,0.1,40.5,0.1,21.6C0.1,9.4,8.6,0.2,19.9,0.2c4.7,0,10,2.2,14.1,5.8c4.1-3.6,9.4-5.8,14.1-5.8
			c11.3,0,19.8,9.2,19.8,21.4c0,7.9-5.1,16.3-15.2,24.9C45.2,52.9,37.5,57,37.5,57.1c-0.3,0.2-0.6,0.3-0.9,0.4h-0.1
			c-0.2,0.1-0.4,0.2-0.6,0.2C35.2,57.7,34.6,57.8,34,57.8z M19.9,2.1C9.7,2.1,2.1,10.5,2.1,21.5c0,17.7,29.1,33.5,29.4,33.6
			c0.2,0.1,0.4,0.2,0.6,0.2l0.2,0.1c0.2,0.1,0.3,0.1,0.4,0.2c0.9,0.2,1.7,0.2,2.7,0c0.1,0,0.2-0.1,0.3-0.1c0.1,0,0.1,0,0.2-0.1
			c0.2-0.1,0.4-0.2,0.6-0.3c0.3-0.2,29.4-15.9,29.4-33.6c0-11.1-7.7-19.4-17.8-19.4c-4.5,0-9.6,2.2-13.4,5.9c-0.4,0.4-1,0.4-1.4,0
			C29.5,4.3,24.4,2.1,19.9,2.1z"/>
	</g>
	<g>
		<path fill="#D24A43" d="M34,50.7c-0.5,0-1-0.1-1.5-0.2c-0.2-0.1-0.4-0.1-0.5-0.2h-0.1c-0.2-0.1-0.5-0.2-0.7-0.3
			c-1-0.5-23.8-12.6-23.8-26.9c0-9.4,6.7-16.4,15.7-16.4c3.6,0,7.4,2.9,10.9,6.1c3.6-3.2,7.4-6.1,10.9-6.1c8.9,0,15.7,7.1,15.7,16.4
			c0,14.3-22.8,26.4-23.8,26.9c-0.2,0.1-0.5,0.2-0.7,0.3c-0.2,0.1-0.4,0.1-0.6,0.2C35,50.6,34.5,50.7,34,50.7z M23.1,8.7
			c-7.8,0-13.7,6.2-13.7,14.4c0,13.1,22.5,25,22.7,25.1c0.1,0.1,0.3,0.1,0.4,0.2l0.1,0.1c0.1,0.1,0.2,0.1,0.3,0.1
			c0.7,0.2,1.3,0.2,2,0c0.1,0,0.1,0,0.2-0.1l0,0c0.1,0,0.1,0,0.2-0.1c0.1,0,0.3-0.1,0.4-0.2c0.2-0.1,22.7-12,22.7-25.1
			c0-8.2-5.9-14.4-13.7-14.4c-3.6,0-8.1,4.2-10.3,6.2c-0.4,0.4-1,0.4-1.4,0C31.1,12.9,26.6,8.7,23.1,8.7z"/>
	</g>
	<g>
		<path fill="#D24A43" d="M34,42.9c-0.3,0-0.7,0-1-0.1c-0.2,0-0.3-0.1-0.4-0.1c-0.2-0.1-0.4-0.1-0.5-0.2c-0.6-0.3-15.2-8-15.2-17.3
			c0-6.1,4.4-10.7,10.2-10.7c2.3,0,4.7,1.7,6.9,3.7c2.2-2,4.6-3.7,6.9-3.7c5.8,0,10.2,4.6,10.2,10.7c0,9.3-14.6,17-15.2,17.3
			c-0.2,0.1-0.3,0.1-0.5,0.2l0,0l0,0c-0.1,0.1-0.2,0.1-0.4,0.1C34.7,42.9,34.3,42.9,34,42.9z M27.1,16.5c-4.7,0-8.2,3.7-8.2,8.7
			c0,8.1,14,15.5,14.1,15.5c0.1,0,0.1,0.1,0.2,0.1h0.1c0.1,0,0.1,0,0.2,0.1c0.3,0.1,0.7,0.1,1.1,0c0,0,0,0,0.1,0l0,0
			c0.1,0,0.2-0.1,0.2-0.1s0.1,0,0.1-0.1c0.1-0.1,14.1-7.4,14.1-15.5c0-5-3.5-8.7-8.2-8.7c-2.1,0-4.9,2.6-6.2,3.8
			c-0.4,0.4-1,0.4-1.4,0C32,19,29.2,16.5,27.1,16.5z"/>
	</g>
	<g>
		<path fill="#D24A43" d="M34,35c-0.2,0-0.4,0-0.6-0.1c-0.1,0-0.2,0-0.2-0.1c-0.1,0-0.2-0.1-0.3-0.1c-0.7-0.3-6.4-3.5-6.4-7.5
			c0-2.8,2-4.9,4.7-4.9c1,0,1.9,0.6,2.8,1.3c0.9-0.7,1.8-1.3,2.8-1.3c2.7,0,4.7,2.1,4.7,4.9c0,4.1-6.2,7.4-6.4,7.5
			c-0.1,0-0.2,0.1-0.3,0.1c-0.1,0-0.1,0-0.2,0.1C34.4,35,34.2,35,34,35z M31.2,24.4c-1.6,0-2.7,1.2-2.7,2.9c0,2.4,3.9,4.9,5.4,5.7
			H34c0,0,0,0,0.1,0h0.1l0,0c1.5-0.8,5.4-3.3,5.4-5.7c0-1.7-1.1-2.9-2.7-2.9c-0.6,0-1.7,1-2.1,1.4s-1,0.4-1.4,0
			C33,25.4,31.8,24.4,31.2,24.4z"/>
	</g>
</g>
</svg>
