<?xml version="1.0" encoding="utf-8"?>
<!-- Generator: Adobe Illustrator 20.1.0, SVG Export Plug-In . SVG Version: 6.00 Build 0)  -->
<svg version="1.1" id="Слой_1" xmlns="http://www.w3.org/2000/svg" xmlns:xlink="http://www.w3.org/1999/xlink" x="0px" y="0px"
	 width="68px" height="111px" viewBox="0 0 68 111" enable-background="new 0 0 68 111" xml:space="preserve">
<g>
	<g>
		<rect x="34" y="0.4" fill="#161516" width="2" height="16.1"/>
	</g>
	<g>
		
			<rect x="18.7" y="8.3" transform="matrix(0.6353 -0.7723 0.7723 0.6353 -4.2341 20.5707)" fill="#161516" width="2" height="12.9"/>
	</g>
	<g>
		<rect x="43.9" y="13.8" transform="matrix(0.79 -0.6131 0.6131 0.79 1.5117 33.9864)" fill="#161516" width="12.9" height="2"/>
	</g>
	<g>
		<rect x="34" y="94.5" fill="#161516" width="2" height="16.1"/>
	</g>
	<g>
		
			<rect x="52.5" y="89.8" transform="matrix(0.6265 -0.7795 0.7795 0.6265 -55.0343 77.6192)" fill="#161516" width="2" height="12.9"/>
	</g>
	<g>
		
			<rect x="11.3" y="96.2" transform="matrix(0.6341 -0.7732 0.7732 0.6341 -68.6854 49.2984)" fill="#161516" width="12.9" height="2"/>
	</g>
	<g>
		<path fill="#0E0F0F" d="M34,84.5c-0.6,0-1.2-0.1-1.8-0.2c-0.3-0.1-0.5-0.1-0.7-0.2h-0.1c-0.3-0.1-0.6-0.2-0.9-0.4
			C30.2,83.5,0.1,67.2,0.1,48.3c0-12.2,8.5-21.4,19.8-21.4c4.7,0,10,2.2,14.1,5.8c4.1-3.6,9.4-5.8,14.1-5.8
			c11.3,0,19.8,9.2,19.8,21.4c0,7.9-5.1,16.3-15.2,24.9c-7.5,6.4-15.2,10.5-15.2,10.6c-0.3,0.2-0.6,0.3-0.9,0.4h-0.1
			c-0.2,0.1-0.4,0.2-0.6,0.2C35.2,84.4,34.6,84.5,34,84.5z M19.9,28.8c-10.2,0-17.8,8.4-17.8,19.4c0,17.7,29.1,33.5,29.4,33.6
			c0.2,0.1,0.4,0.2,0.6,0.2l0.2,0.1c0.2,0.1,0.3,0.1,0.4,0.2c0.9,0.2,1.7,0.2,2.7,0c0.1,0,0.2-0.1,0.3-0.1c0.1,0,0.1,0,0.2-0.1
			c0.2-0.1,0.4-0.2,0.6-0.3c0.3-0.2,29.4-15.9,29.4-33.6c0-11.1-7.7-19.4-17.8-19.4c-4.5,0-9.6,2.2-13.4,5.9c-0.4,0.4-1,0.4-1.4,0
			C29.5,31,24.4,28.8,19.9,28.8z"/>
	</g>
	<g>
		<path fill="#0E0F0F" d="M34,77.4c-0.5,0-1-0.1-1.5-0.2c-0.2-0.1-0.4-0.1-0.5-0.2h-0.1c-0.2-0.1-0.5-0.2-0.7-0.3
			c-1-0.5-23.8-12.6-23.8-26.9c0-9.4,6.7-16.4,15.7-16.4c3.6,0,7.4,2.9,10.9,6.1c3.6-3.2,7.4-6.1,10.9-6.1c8.9,0,15.7,7.1,15.7,16.4
			c0,14.3-22.8,26.4-23.8,26.9c-0.2,0.1-0.5,0.2-0.7,0.3c-0.2,0.1-0.4,0.1-0.6,0.2C35,77.3,34.5,77.4,34,77.4z M23.1,35.4
			c-7.8,0-13.7,6.2-13.7,14.4c0,13.1,22.5,25,22.7,25.1c0.1,0.1,0.3,0.1,0.4,0.2l0.1,0.1c0.1,0.1,0.2,0.1,0.3,0.1
			c0.7,0.2,1.3,0.2,2,0c0.1,0,0.1,0,0.2-0.1l0,0c0.1,0,0.1,0,0.2-0.1c0.1,0,0.3-0.1,0.4-0.2c0.2-0.1,22.7-12,22.7-25.1
			c0-8.2-5.9-14.4-13.7-14.4c-3.6,0-8.1,4.2-10.3,6.2c-0.4,0.4-1,0.4-1.4,0C31.1,39.6,26.6,35.4,23.1,35.4z"/>
	</g>
	<g>
		<path fill="#0E0F0F" d="M34,69.6c-0.3,0-0.7,0-1-0.1c-0.2,0-0.3-0.1-0.4-0.1c-0.2-0.1-0.4-0.1-0.5-0.2c-0.6-0.3-15.2-8-15.2-17.3
			c0-6.1,4.4-10.7,10.2-10.7c2.3,0,4.7,1.7,6.9,3.7c2.2-2,4.6-3.7,6.9-3.7c5.8,0,10.2,4.6,10.2,10.7c0,9.3-14.6,17-15.2,17.3
			c-0.2,0.1-0.3,0.1-0.5,0.2l0,0l0,0c-0.1,0.1-0.2,0.1-0.4,0.1C34.7,69.6,34.3,69.6,34,69.6z M27.1,43.2c-4.7,0-8.2,3.7-8.2,8.7
			c0,8.1,14,15.5,14.1,15.5c0.1,0,0.1,0.1,0.2,0.1h0.1c0.1,0,0.1,0,0.2,0.1c0.3,0.1,0.7,0.1,1.1,0c0,0,0,0,0.1,0l0,0
			c0.1,0,0.2-0.1,0.2-0.1s0.1,0,0.1-0.1c0.1-0.1,14.1-7.4,14.1-15.5c0-5-3.5-8.7-8.2-8.7c-2.1,0-4.9,2.6-6.2,3.8
			c-0.4,0.4-1,0.4-1.4,0C32,45.7,29.2,43.2,27.1,43.2z"/>
	</g>
	<g>
		<path fill="#0E0F0F" d="M34,61.7c-0.2,0-0.4,0-0.6-0.1c-0.1,0-0.2,0-0.2-0.1c-0.1,0-0.2-0.1-0.3-0.1c-0.7-0.3-6.4-3.5-6.4-7.5
			c0-2.8,2-4.9,4.7-4.9c1,0,1.9,0.6,2.8,1.3c0.9-0.7,1.8-1.3,2.8-1.3c2.7,0,4.7,2.1,4.7,4.9c0,4.1-6.2,7.4-6.4,7.5
			c-0.1,0-0.2,0.1-0.3,0.1c-0.1,0-0.1,0-0.2,0.1C34.4,61.7,34.2,61.7,34,61.7z M31.2,51.1c-1.6,0-2.7,1.2-2.7,2.9
			c0,2.4,3.9,4.9,5.4,5.7H34c0,0,0,0,0.1,0h0.1l0,0c1.5-0.8,5.4-3.3,5.4-5.7c0-1.7-1.1-2.9-2.7-2.9c-0.6,0-1.7,1-2.1,1.4
			s-1,0.4-1.4,0C33,52.1,31.8,51.1,31.2,51.1z"/>
	</g>
</g>
</svg>
