<?xml version="1.0" encoding="utf-8"?>
<!-- Generator: Adobe Illustrator 20.1.0, SVG Export Plug-In . SVG Version: 6.00 Build 0)  -->
<svg version="1.1" id="Слой_1" xmlns="http://www.w3.org/2000/svg" xmlns:xlink="http://www.w3.org/1999/xlink" x="0px" y="0px"
	 width="23.9px" height="23.9px" viewBox="0 0 23.9 23.9" enable-background="new 0 0 23.9 23.9" xml:space="preserve">
<path fill="#0E0F0F" d="M20.3,23.3L0.6,3.6c-0.8-0.8-0.8-2,0-2.8l0.2-0.2c0.8-0.8,2-0.8,2.8,0l19.7,19.7c0.8,0.8,0.8,2,0,2.8
	l-0.2,0.2C22.3,24.1,21.1,24.1,20.3,23.3z"/>
<path fill="#0E0F0F" d="M3.6,23.3L23.3,3.6c0.8-0.8,0.8-2,0-2.8l-0.2-0.2c-0.8-0.8-2-0.8-2.8,0L0.6,20.3c-0.8,0.8-0.8,2,0,2.8
	l0.2,0.2C1.6,24.1,2.8,24.1,3.6,23.3z"/>
</svg>
