<?xml version="1.0" encoding="utf-8"?>
<!-- Generator: Adobe Illustrator 20.1.0, SVG Export Plug-In . SVG Version: 6.00 Build 0)  -->
<svg version="1.1" id="Слой_1" xmlns="http://www.w3.org/2000/svg" xmlns:xlink="http://www.w3.org/1999/xlink" x="0px" y="0px"
	 width="56px" height="113px" viewBox="0 0 56 113" enable-background="new 0 0 56 113" xml:space="preserve">
<g>
	<g>
		<g>
			<path fill="#111212" d="M55.8,48.3C55.1,42.2,48.5,25,28.1,25C8.9,25,1.4,40.8,0.2,49.2c-0.3,2.2-1.2,7.9,6.1,9.4
				c0.5,0.1,1,0.2,1.5,0.2l3.1,19.9l0.3,0.3c0.2,0.2,4,3.6,14.6,4v0.1h2.3l0,0h0.5c12.4,0,16.7-3.9,16.9-4.1l0.3-0.3l3.3-22.9
				c1.6,0.2,3.4,0.1,4.8-1C55.5,53.5,56.2,51.3,55.8,48.3z M13.1,77.4l-2.9-18.5c1.5,0,2.8-0.3,4.1-0.5L18,79.5
				C15.2,78.7,13.6,77.8,13.1,77.4z M25.7,80.5L25.7,80.5c-2.1-0.1-3.8-0.3-5.3-0.6l-3.9-22.2c0.7-0.2,1.4-0.5,1.8-0.6
				c1.1,0.8,3.5,2.3,7.4,3V80.5z M28.6,80.6h-0.5V60.4c0.6,0,1.2,0.1,1.8,0.1c0.9,0,1.9,0,2.9-0.1c2-0.2,3.8-0.5,5.3-1L35,80.2
				C33.2,80.4,31.1,80.6,28.6,80.6z M43.6,77.4c-0.7,0.5-2.6,1.6-6.2,2.4l3.2-21.3c3-1.2,4.8-2.6,5.6-3.5c0.2,0.1,0.4,0.1,0.6,0.2
				L43.6,77.4z M52.5,52.8c-1.6,1.2-5,0.2-6.1-0.3l-0.9-0.4l-0.6,0.8c0,0-1.7,2.3-6.4,3.8h-0.1l0,0c-1.6,0.5-3.5,1-5.9,1.2
				c-9.1,0.9-13.2-3-13.2-3.1l-0.6-0.6l-0.8,0.4c-0.1,0-5.7,2.7-11.3,1.6c-4.7-0.9-4.6-3.7-4.2-6.7c0.3-1.9,0.9-4.1,1.9-6.5
				c0.1,1.1,1.1,2,2.2,2c1.3,0,2.3-1,2.3-2.2s-1-2.2-2.3-2.2c-0.5,0-0.9,0.2-1.3,0.4c3.6-6.8,10.6-13.6,22.7-13.6
				c1.4,0,2.7,0.1,4,0.3c-0.6,0.4-1,1-1,1.8c0,1.2,1,2.2,2.3,2.2c1.3,0,2.3-1,2.3-2.2c0-0.5-0.2-0.9-0.4-1.2
				c9.4,2.4,14.4,9.2,16.7,14.7c-0.3-0.1-0.5-0.2-0.8-0.2c-1.3,0-2.3,1-2.3,2.2s1,2.2,2.3,2.2c0.8,0,1.5-0.4,1.9-1.1
				c0.2,0.9,0.4,1.7,0.5,2.4C53.7,50.7,53.4,52.1,52.5,52.8z M40,38.3c-1.3,0-2.3,1-2.3,2.2s1,2.2,2.3,2.2s2.3-1,2.3-2.2
				C42.3,39.3,41.2,38.3,40,38.3z M17.7,31.6c-1.3,0-2.3,1-2.3,2.2s1,2.2,2.3,2.2s2.3-1,2.3-2.2S19,31.6,17.7,31.6z M28.8,40.6
				c-1.3,0-2.3,1-2.3,2.2s1,2.2,2.3,2.2c1.3,0,2.3-1,2.3-2.2S30.1,40.6,28.8,40.6z M15.5,42.8c-1.3,0-2.3,1-2.3,2.2s1,2.2,2.3,2.2
				s2.3-1,2.3-2.2S16.8,42.8,15.5,42.8z M28.9,33.9c0-1.2-1-2.2-2.3-2.2s-2.3,1-2.3,2.2s1,2.2,2.3,2.2
				C27.9,36.1,28.9,35.1,28.9,33.9z"/>
		</g>
	</g>
	<rect x="25.6" y="0.4" fill="#161516" width="2" height="16.1"/>
	
		<rect x="12.3" y="7.3" transform="matrix(0.6353 -0.7723 0.7723 0.6353 -5.7886 15.3352)" fill="#161516" width="2" height="12.9"/>
	
		<rect x="33.6" y="12.8" transform="matrix(0.79 -0.6131 0.6131 0.79 -5.898317e-02 27.4311)" fill="#161516" width="12.9" height="2"/>
	<rect x="25.6" y="96.5" fill="#161516" width="2" height="16.1"/>
	
		<rect x="35" y="94.2" transform="matrix(0.8726 -0.4884 0.4884 0.8726 -44.5662 30.4273)" fill="#161516" width="2" height="12.9"/>
	
		<rect x="11.5" y="99.7" transform="matrix(0.3759 -0.9267 0.9267 0.3759 -82.0722 79.4969)" fill="#161516" width="12.9" height="2"/>
</g>
</svg>
