<?xml version="1.0" encoding="utf-8"?>
<!-- Generator: Adobe Illustrator 20.1.0, SVG Export Plug-In . SVG Version: 6.00 Build 0)  -->
<svg version="1.1" id="Слой_1" xmlns="http://www.w3.org/2000/svg" xmlns:xlink="http://www.w3.org/1999/xlink" x="0px" y="0px"
	 width="56px" height="59px" viewBox="0 0 56 59" enable-background="new 0 0 56 59" xml:space="preserve">
<g>
	<g>
		<g>
			<path fill="#D24A43" d="M55.8,23.8c-0.7-6.1-7.3-23.3-27.7-23.3C8.9,0.5,1.4,16.2,0.2,24.7C-0.1,26.9-1,32.5,6.3,34
				c0.5,0.1,1,0.2,1.5,0.2l3.1,19.9l0.3,0.3c0.2,0.2,4,3.6,14.6,4v0.1h2.3l0,0h0.5c12.4,0,16.7-3.9,16.9-4.1l0.3-0.3l3.3-22.9
				c1.6,0.2,3.4,0.1,4.8-1C55.5,29,56.2,26.8,55.8,23.8z M13.1,52.9l-2.9-18.5c1.5,0,2.8-0.3,4.1-0.5L18,55
				C15.2,54.1,13.6,53.3,13.1,52.9z M25.7,56L25.7,56c-2.1-0.1-3.8-0.3-5.3-0.6l-3.9-22.2c0.7-0.2,1.4-0.5,1.8-0.6
				c1.1,0.8,3.5,2.3,7.4,3V56z M28.6,56h-0.5V35.9c0.6,0,1.2,0.1,1.8,0.1c0.9,0,1.9,0,2.9-0.1c2-0.2,3.8-0.5,5.3-1L35,55.6
				C33.2,55.9,31.1,56,28.6,56z M43.6,52.9c-0.7,0.5-2.6,1.6-6.2,2.4L40.6,34c3-1.2,4.8-2.6,5.6-3.5c0.2,0.1,0.4,0.1,0.6,0.2
				L43.6,52.9z M52.5,28.2c-1.6,1.2-5,0.2-6.1-0.3l-0.9-0.4l-0.6,0.8c0,0-1.7,2.3-6.4,3.8h-0.1l0,0c-1.6,0.5-3.5,1-5.9,1.2
				c-9.1,0.9-13.2-3-13.2-3.1l-0.6-0.6L17.9,30c-0.1,0-5.7,2.7-11.3,1.6c-4.7-0.9-4.6-3.7-4.2-6.7c0.3-1.9,0.9-4.1,1.9-6.5
				c0.1,1.1,1.1,2,2.2,2c1.3,0,2.3-1,2.3-2.2S7.8,16,6.5,16c-0.5,0-0.9,0.2-1.3,0.4C8.8,9.6,15.8,2.8,27.9,2.8c1.4,0,2.7,0.1,4,0.3
				c-0.6,0.4-1,1-1,1.8c0,1.2,1,2.2,2.3,2.2c1.3,0,2.3-1,2.3-2.2c0-0.5-0.2-0.9-0.4-1.2c9.4,2.4,14.4,9.2,16.7,14.7
				c-0.3-0.1-0.5-0.2-0.8-0.2c-1.3,0-2.3,1-2.3,2.2s1,2.2,2.3,2.2c0.8,0,1.5-0.4,1.9-1.1c0.2,0.9,0.4,1.7,0.5,2.4
				C53.7,26.2,53.4,27.5,52.5,28.2z M40,13.8c-1.3,0-2.3,1-2.3,2.2s1,2.2,2.3,2.2s2.3-1,2.3-2.2C42.3,14.8,41.2,13.8,40,13.8z
				 M17.7,7c-1.3,0-2.3,1-2.3,2.2s1,2.2,2.3,2.2s2.3-1,2.3-2.2S19,7,17.7,7z M28.8,16c-1.3,0-2.3,1-2.3,2.2s1,2.2,2.3,2.2
				c1.3,0,2.3-1,2.3-2.2S30.1,16,28.8,16z M15.5,18.2c-1.3,0-2.3,1-2.3,2.2s1,2.2,2.3,2.2s2.3-1,2.3-2.2S16.8,18.2,15.5,18.2z
				 M28.9,9.4c0-1.2-1-2.2-2.3-2.2s-2.3,1-2.3,2.2s1,2.2,2.3,2.2C27.9,11.5,28.9,10.5,28.9,9.4z"/>
		</g>
	</g>
</g>
</svg>
