<?xml version="1.0" encoding="utf-8"?>
<!-- Generator: Adobe Illustrator 20.1.0, SVG Export Plug-In . SVG Version: 6.00 Build 0)  -->
<svg version="1.1" id="Слой_1" xmlns="http://www.w3.org/2000/svg" xmlns:xlink="http://www.w3.org/1999/xlink" x="0px" y="0px"
	 width="39px" height="67px" viewBox="0 0 39 67" enable-background="new 0 0 39 67" xml:space="preserve">
<g>
	<g>
		<path fill="#D24A43" d="M38.8,21.2c-0.1-2.9-2.5-5.4-15.5-5.9h0.2v2.3c13,0.6,13.5,3.2,13.5,3.7c0,1.3-5.3,3.8-17.4,3.8
			S2.5,22.6,2.5,21.3c0-1.2,4-3.6,16-3.8v-2.3C9.5,15.4,0.6,17,0.3,21c-0.1,0.2-0.2,0.3-0.2,0.5l0.1,3.9c0,1.3,0.8,2.3,2.1,3.1
			l4.3,30c0,1.4,0.8,3,2.2,4.4L8.9,63c2.1,2.1,5.7,3.7,10.6,3.7c8.8,0,12.9-5.3,12.9-8.6l1.7-12.2c0-0.1,0.1-0.3,0.1-0.4l2.3-16.2
			c1.5-0.8,2.3-1.9,2.3-3.1l0.1-4.5C38.9,21.5,38.9,21.4,38.8,21.2z M4.5,29.8c3.8,1.4,9.6,2,15.1,2c1.8,0,3.5,0,5.1-0.1
			c-2.5,2.8-8.5,8.7-18.2,12.6L4.5,29.8z M30.2,58.1c0,2.3-3.2,6.5-10.8,6.5c-3.3,0-5.8-0.9-7.7-2c9.6-3.5,16.3-9.7,19.7-13.3
			L30.2,58.1z M32.1,45.2c-1.3,1.6-9.4,11.5-22.3,15.7c-0.7-0.9-1.2-1.7-1.2-2.4l-1.7-12C20.5,41.2,27,32.4,27.8,31.4
			c2.6-0.2,4.8-0.6,6.4-1.1L32.1,45.2z M36.6,26.2c0,0.9-3,3.3-17,3.3c-12.3,0-17.4-2.6-17.4-4v-1c3.5,2.1,10.5,2.9,17.2,2.9
			s13.8-0.8,17.3-3L36.6,26.2z"/>
		<path fill="#D24A43" d="M21,22.4h-1c-1.7,0-3-1.3-3-3v-9.2c0-1.8,0.8-3.5,2.3-4.7l5.8-4.6c0.6-0.5,1.4-0.7,2.2-0.6
			c0.8,0.1,1.5,0.5,2,1.1l0.4,0.5c1,1.3,0.8,3.1-0.4,4.2l-3.7,3.1c-0.9,0.8-1.4,1.9-1.4,3.1v7.2C24,21.1,22.7,22.4,21,22.4z
			 M26.3,2.5l-5.8,4.7C19.5,8,19,9.1,19,10.3v9.2c0,0.6,0.4,1,1,1h1c0.6,0,1-0.4,1-1v-7.2c0-1.8,0.8-3.5,2.1-4.6l3.7-3.1
			c0.4-0.3,0.5-1,0.1-1.4l-0.4-0.5c-0.2-0.2-0.4-0.3-0.7-0.4C26.8,2.3,26.5,2.4,26.3,2.5L26.3,2.5z"/>
	</g>
</g>
</svg>
