<?xml version="1.0" encoding="utf-8"?>
<!-- Generator: Adobe Illustrator 20.1.0, SVG Export Plug-In . SVG Version: 6.00 Build 0)  -->
<svg version="1.1" id="Слой_1" xmlns="http://www.w3.org/2000/svg" xmlns:xlink="http://www.w3.org/1999/xlink" x="0px" y="0px"
	 width="126px" height="67px" viewBox="0 0 126 67" enable-background="new 0 0 126 67" xml:space="preserve">
<g>
	<rect x="0.4" y="38.8" fill="#161516" width="18.6" height="2"/>
	
		<rect x="14.7" y="20.8" transform="matrix(0.3477 -0.9376 0.9376 0.3477 -15.2784 32.4781)" fill="#161516" width="2" height="12.9"/>
	
		<rect x="11.3" y="51.3" transform="matrix(0.895 -0.4461 0.4461 0.895 -21.4886 13.3977)" fill="#161516" width="12.9" height="2"/>
	<rect x="107.1" y="38.8" fill="#161516" width="18.6" height="2"/>
	
		<rect x="103.8" y="26.2" transform="matrix(0.9376 -0.3477 0.3477 0.9376 -2.5897 40.0171)" fill="#161516" width="12.9" height="2"/>
	
		<rect x="107.2" y="45.9" transform="matrix(0.4461 -0.895 0.895 0.4461 13.1113 125.8222)" fill="#161516" width="2" height="12.9"/>
	<g>
		<path fill="#161516" d="M85.3,21.2c-0.1-2.9-2.5-5.4-15.5-5.9H70v2.3c13,0.6,13.5,3.2,13.5,3.7c0,1.3-5.3,3.8-17.4,3.8
			S49,22.6,49,21.3c0-1.2,4-3.6,16-3.8v-2.3C56,15.4,47,17,46.8,21c-0.1,0.2-0.2,0.3-0.2,0.5l0.1,3.9c0,1.3,0.8,2.3,2.1,3.1l4.3,30
			c0,1.4,0.8,3,2.2,4.4l0.1,0.1c2.1,2.1,5.7,3.7,10.6,3.7c8.8,0,12.9-5.3,12.9-8.6l1.7-12.2c0-0.1,0.1-0.3,0.1-0.4L83,29.3
			c1.5-0.8,2.3-1.9,2.3-3.1l0.1-4.5C85.4,21.5,85.4,21.4,85.3,21.2z M51,29.8c3.8,1.4,9.6,2,15.1,2c1.8,0,3.5,0,5.1-0.1
			c-2.5,2.8-8.5,8.7-18.2,12.6L51,29.8z M76.7,58.1c0,2.3-3.2,6.5-10.8,6.5c-3.3,0-5.8-0.9-7.7-2c9.6-3.5,16.3-9.7,19.7-13.3
			L76.7,58.1z M78.6,45.2c-1.3,1.6-9.4,11.5-22.3,15.7C55.5,60,55,59.2,55,58.5l-1.7-12C67,41.2,73.5,32.4,74.3,31.4
			c2.6-0.2,4.8-0.6,6.4-1.1L78.6,45.2z M83.1,26.2c0,0.9-3,3.3-17,3.3c-12.3,0-17.4-2.6-17.4-4v-1c3.5,2.1,10.5,2.9,17.2,2.9
			s13.8-0.8,17.3-3L83.1,26.2z"/>
		<path fill="#0E0F0F" d="M67.5,22.4h-1c-1.7,0-3-1.3-3-3v-9.2c0-1.8,0.8-3.5,2.3-4.7l5.8-4.6c0.6-0.5,1.4-0.7,2.2-0.6
			c0.8,0.1,1.5,0.5,2,1.1l0.4,0.5c1,1.3,0.8,3.1-0.4,4.2l-3.7,3.1c-0.9,0.8-1.4,1.9-1.4,3.1v7.2C70.5,21.1,69.2,22.4,67.5,22.4z
			 M72.8,2.5L67,7.2c-1,0.8-1.5,1.9-1.5,3.1v9.2c0,0.6,0.4,1,1,1h1c0.6,0,1-0.4,1-1v-7.2c0-1.8,0.8-3.5,2.1-4.6l3.7-3.1
			c0.4-0.3,0.5-1,0.1-1.4l-0.4-0.5c-0.2-0.2-0.4-0.3-0.7-0.4C73.3,2.3,73,2.4,72.8,2.5L72.8,2.5z"/>
	</g>
</g>
</svg>
