<?xml version="1.0" encoding="utf-8"?>
<!-- Generator: Adobe Illustrator 20.1.0, SVG Export Plug-In . SVG Version: 6.00 Build 0)  -->
<svg version="1.1" id="Слой_1" xmlns="http://www.w3.org/2000/svg" xmlns:xlink="http://www.w3.org/1999/xlink" x="0px" y="0px"
	 width="58px" height="57px" viewBox="0 0 58 57" enable-background="new 0 0 58 57" xml:space="preserve">
<path fill="#434344" d="M29,5.1c7.7,0,8.6,0,11.6,0.2c2.8,0.1,4.3,0.6,5.3,1c1.3,0.5,2.3,1.1,3.3,2.1s1.6,1.9,2.1,3.3
	c0.4,1,0.9,2.5,1,5.3c0.1,3,0.2,3.9,0.2,11.5s0,8.5-0.2,11.5c-0.1,2.8-0.6,4.3-1,5.3c-0.4,1.3-1.1,2.3-2.1,3.3s-2,1.6-3.3,2.1
	c-1,0.4-2.5,0.9-5.3,1c-3,0.1-3.9,0.2-11.6,0.2s-8.6,0-11.6-0.2c-2.8-0.1-4.3-0.6-5.3-1c-1.3-0.5-2.3-1.1-3.3-2.1s-1.6-1.9-2.1-3.3
	c-0.4-1-0.9-2.5-1-5.3c-0.1-3-0.2-3.9-0.2-11.5S5.5,20,5.7,17c0.1-2.8,0.6-4.3,1-5.3c0.5-1.3,1.1-2.3,2.1-3.3s2-1.6,3.3-2.1
	c1-0.4,2.5-0.9,5.3-1C20.4,5.1,21.3,5.1,29,5.1 M29,0c-7.8,0-8.8,0-11.8,0.2c-3.1,0.1-5.1,0.6-7,1.3C8.3,2.2,6.7,3.2,5.1,4.8
	C3.5,6.4,2.5,8,1.8,9.8c-0.7,1.8-1.2,3.9-1.3,6.9c-0.1,3-0.2,4-0.2,11.8s0,8.7,0.2,11.8c0.1,3,0.6,5.1,1.3,6.9
	c0.7,1.9,1.7,3.5,3.3,5c1.6,1.6,3.2,2.6,5.1,3.3c1.8,0.7,3.9,1.2,7,1.3c3.1,0.1,4,0.2,11.8,0.2s8.8,0,11.8-0.2
	c3.1-0.1,5.1-0.6,7-1.3c1.9-0.7,3.5-1.7,5.1-3.3c1.6-1.6,2.6-3.2,3.3-5c0.7-1.8,1.2-3.9,1.3-6.9c0.1-3,0.2-4,0.2-11.8
	s0-8.7-0.2-11.8c-0.1-3-0.6-5.1-1.3-6.9c-0.7-1.9-1.7-3.5-3.3-5c-1.6-1.6-3.2-2.6-5.1-3.3c-1.8-0.7-3.9-1.2-7-1.3
	C37.8,0,36.8,0,29,0L29,0z"/>
<path fill="#434344" d="M35.4,52.2V32.7h6.7l1-7.6h-7.7v-4.9c0-2.2,0.6-3.7,3.8-3.7h4.1V9.7c-0.7-0.1-3.2-0.3-6-0.3
	c-5.9,0-10,3.5-10,10V25h-6.7v7.6h6.7v19.5L35.4,52.2L35.4,52.2z"/>
</svg>
