<?xml version="1.0" encoding="utf-8"?>
<!-- Generator: Adobe Illustrator 20.1.0, SVG Export Plug-In . SVG Version: 6.00 Build 0)  -->
<svg version="1.1" id="Слой_1" xmlns="http://www.w3.org/2000/svg" xmlns:xlink="http://www.w3.org/1999/xlink" x="0px" y="0px"
	 width="57.4px" height="57px" viewBox="0 0 57.4 57" enable-background="new 0 0 57.4 57" xml:space="preserve">
<g>
	<g>
		<path fill="#434344" d="M57.2,16.7c-0.1-3-0.6-5.1-1.3-6.9c-0.7-1.9-1.7-3.5-3.3-5c-1.6-1.6-3.2-2.6-5.1-3.3
			c-1.8-0.7-3.9-1.2-7-1.3C37.4,0.1,36.5,0,28.7,0s-8.8,0-11.8,0.2c-3.1,0.1-5.1,0.6-7,1.3C8,2.2,6.4,3.2,4.8,4.8
			C3.2,6.4,2.2,8,1.5,9.8c-0.7,1.8-1.2,3.9-1.3,6.9c-0.1,3-0.2,4-0.2,11.8c0,7.7,0,8.7,0.2,11.8c0.1,3,0.6,5.1,1.3,6.9
			c0.7,1.9,1.7,3.5,3.3,5c1.6,1.6,3.2,2.6,5.1,3.3c1.8,0.7,3.9,1.2,7,1.3c3.1,0.1,4,0.2,11.8,0.2s8.8,0,11.8-0.2
			c3.1-0.1,5.1-0.6,7-1.3c1.9-0.7,3.5-1.7,5.1-3.3c1.6-1.6,2.6-3.2,3.3-5c0.7-1.8,1.2-3.9,1.3-6.9c0.1-3,0.2-4,0.2-11.8
			S57.3,19.8,57.2,16.7z M52,40c-0.1,2.8-0.6,4.3-1,5.3c-0.5,1.3-1.1,2.3-2.1,3.3s-2,1.6-3.3,2.1c-1,0.4-2.5,0.9-5.3,1
			c-3,0.1-3.9,0.2-11.6,0.2s-8.6,0-11.6-0.2c-2.8-0.1-4.3-0.6-5.3-1c-1.3-0.5-2.3-1.1-3.3-2.1s-1.6-1.9-2.1-3.3
			c-0.4-1-0.9-2.5-1-5.3c-0.1-3-0.2-3.9-0.2-11.5S5.2,20,5.4,17c0.1-2.8,0.6-4.3,1-5.3c0.5-1.3,1.1-2.3,2.1-3.3s2-1.6,3.3-2.1
			c1-0.4,2.5-0.9,5.3-1c3-0.1,3.9-0.2,11.6-0.2s8.6,0,11.6,0.2c2.8,0.1,4.3,0.6,5.3,1c1.3,0.5,2.3,1.1,3.3,2.1s1.6,1.9,2.1,3.3
			c0.4,1,0.9,2.5,1,5.3c0.1,3,0.2,3.9,0.2,11.5C52.2,36.1,52.1,37,52,40z M17.9,26.1v4.8v15.4h3.6V30.9h19.2V13H17.9V26.1z"/>
	</g>
</g>
</svg>
