<?xml version="1.0" encoding="utf-8"?>
<!-- Generator: Adobe Illustrator 20.1.0, SVG Export Plug-In . SVG Version: 6.00 Build 0)  -->
<svg version="1.1" id="Слой_1" xmlns="http://www.w3.org/2000/svg" xmlns:xlink="http://www.w3.org/1999/xlink" x="0px" y="0px"
	 width="213px" height="131px" viewBox="0 0 213 131" enable-background="new 0 0 213 131" xml:space="preserve">
<path fill="#FFFFFF" d="M181.8,48.2l-1.8-3.9l31.2-15.1l1.8,3.9L181.8,48.2z M171.6,28.9l10.9-25.7l3.9,1.7l-10.9,25.7L171.6,28.9z
	 M123.9,128.3c-34.4,10.2-70.5-9.8-80.6-44.4C33.2,49.3,53,12.8,87.4,2.7C121.8-7.5,158,12.4,168,47.1
	C178.1,81.7,158.2,118.2,123.9,128.3z M163.9,48.3c-9.4-32.4-43.2-51-75.3-41.5C56.5,16.3,38,50.3,47.4,82.7s43.2,51,75.3,41.5
	C154.8,114.7,173.3,80.7,163.9,48.3z M115.8,97.3c-13.1,3.9-27.1,0.8-37.4-8.2c-0.9-0.8-1-2.1-0.2-3c0.8-0.9,2.1-1,3-0.2
	c9.2,8.1,21.7,10.8,33.4,7.4c10.4-3.1,18.8-10.7,23-20.8c0.5-1.1,1.7-1.6,2.8-1.2c1.1,0.5,1.6,1.7,1.2,2.8
	C136.9,85.3,127.5,93.8,115.8,97.3z M134.2,43.8c-0.1,0-0.1,0-0.2,0.1c-1.1,0.3-2.2-0.2-2.6-1.3c-0.1-0.1-1.7-3.8-8.5-3.5
	c-8.1,0.4-9.3,5.4-9.3,5.5c-0.3,1.2-1.4,1.9-2.6,1.6c-1.2-0.3-1.9-1.4-1.6-2.6c0.1-0.3,2-8.3,13.3-8.8c10-0.4,12.6,6,12.7,6.3
	C135.8,42.1,135.3,43.3,134.2,43.8z M88.3,52.3c-0.2-0.2-3.9-3.7-10.8,0.1c-6,3.3-5.5,7.4-5.5,7.4c0.2,1.1-0.5,2.1-1.5,2.4
	c-0.1,0-0.2,0-0.2,0.1c-1.2,0.2-2.3-0.6-2.5-1.8c-0.1-0.3-1.1-7.2,7.7-12c10-5.4,15.7,0.5,15.9,0.7c0.8,0.9,0.8,2.2-0.1,3.1
	C90.5,53.1,89.1,53.1,88.3,52.3z M13.9,106.7L37.6,92l2.2,3.7l-23.6,14.7L13.9,106.7z M0,81.4l34.6-1.5l0.2,4.3L0.2,85.7L0,81.4z
	 M8.4,53.1l2.2-3.7l23.8,14.3l-2.2,3.7L8.4,53.1z M209.3,69.6l-1.4,4.1l-26.3-9.1l1.4-4.1L209.3,69.6z"/>
</svg>
