<?xml version="1.0" encoding="utf-8"?>
<!-- Generator: Adobe Illustrator 20.1.0, SVG Export Plug-In . SVG Version: 6.00 Build 0)  -->
<svg version="1.1" id="Слой_1" xmlns="http://www.w3.org/2000/svg" xmlns:xlink="http://www.w3.org/1999/xlink" x="0px" y="0px"
	 width="100px" height="100px" viewBox="0 0 100 100" enable-background="new 0 0 100 100" xml:space="preserve">
<g>
	<path fill="#FFFFFF" d="M50,0.1L50,0.1L50,0.1c13.8,0,26.3,5.6,35.4,14.6c9,9,14.6,21.5,14.6,35.3l0,0l0,0l0,0l0,0
		c0,13.8-5.6,26.3-14.6,35.4c-9,9-21.5,14.6-35.3,14.6l0,0l0,0l0,0l0,0c-13.8,0-26.3-5.6-35.4-14.6c-9-9-14.6-21.5-14.6-35.3l0,0
		l0,0l0,0l0,0c0-13.8,5.6-26.3,14.6-35.4C23.7,5.6,36.2,0.1,50,0.1L50,0.1L50,0.1z"/>
	<path fill="#191A19" d="M21.9,41.4V37h5.7V22.4h12.9v9.9h3.2v-1.6l1.5-2.2v-1.2l2.5-3.2l0.1-0.3l0.1-3.8h3.3l0.2,3.8l0.1,0.2
		l2.9,3.1v1.3l1.7,2.2v3h5.1v-2.7l1.6-4.8l0.2-2.9h3.2l0.3,2.9l1.6,4.8V35h2c0-0.7,0.4-1.4,1-1.8c0.6-0.5,1.5-0.7,2.3-0.7
		c0.5,0,1.1,0.1,1.6,0.3c0.4,0.2,0.8,0.4,1.1,0.7c0.4,0.4,0.7,1,0.7,1.7c0,0.1,0,0.2,0,0.2s0,0,0,0.1v1.9h2.6v4h1.3v26.7h-61V41.4
		H21.9z"/>
	<path fill="#FFFFFF" d="M21.2,66.3V43h2.4v-4.3h4v2h1.7V24.1h4v14.5h1.1V24.1h4.4v16.4h1.3v-3.8h1.7V34h2.1V41h1.5v-9.9l1.5-2.2
		v-1.2l2.3-3l0.2-0.8l0.1-2.4l0.1,2.4l0.2,0.8l2.7,3V29l1.7,2.2v7.3h2.5v-3.2h3.6v5.3h2.5V31l1.6-4.8l0.1-1.6l0.1,1.6l1.6,4.8v5.5
		h2.8v5.3h2.6v-6.9c0,0,0-0.4,0.4-0.7c0.2-0.2,0.7-0.3,1.2-0.3s0.8,0.1,1,0.1c0.4,0.2,0.7,0.5,0.7,0.8c0,0.7,0,0,0,0v4h2.6v4h1.3
		v23.3H21.2V66.3z"/>
	<path fill="#D24A43" d="M23.8,44.9h2.6l2.6,3l3,3.3l3.1,3.5c0.2,0.3,0.6,0.6,0.9,1c0.5,0.6,0.8,1,0.9,1.1c0.4,0.4,0.7,0.8,0.9,1.1
		v-13c0.3,0.1,0.7,0.1,1.1,0.1c0.3,0,0.7,0,1.1-0.1v19.2h-2.3l-3.3-3.9l-2.9-3.4c-0.4-0.5-0.8-1-1.4-1.6c-0.4-0.4-0.8-0.9-1.4-1.6
		l-2.8-3.1V64h-0.5h-0.5h-0.5h-0.5V44.9H23.8z"/>
	<path fill="#D24A43" d="M49.8,56l-1.4-2.7l-1.3-2.5l-1.5-2.9c-0.5-1-1-2-1.5-2.9c0.5,0,0.9,0,1.3,0c0.4,0,0.8,0.1,1.1,0.1
		c0.4,0,0.8-0.1,1.2-0.1c0.5,0,0.9,0,1.2,0l2.3,5c0.9,2,1.5,3.1,1.7,3.4c0.7-0.9,2-3.7,4-8.3c0.4,0.1,0.9,0.1,1.3,0.1
		c0.4,0,0.8,0,1.3-0.1l-1.3,2.3l-1.7,3.1l-1.3,2.5c-0.1,0.2-0.3,0.6-0.6,1.3c-0.2,0.5-0.5,0.9-0.6,1.3v8.6L52,64
		c-0.3,0-0.6,0.1-1,0.1s-0.7,0-1,0V56H49.8z"/>
	<path fill="#D24A43" d="M67.8,54c0.4,0,0.7,0,1,0s0.5-0.1,0.7-0.1c0.8-0.2,1.4-0.7,1.8-1.4s0.6-1.5,0.6-2.4c0-1.1-0.2-2-0.7-2.7
		s-1.1-1-1.8-1h-1.6V54z M67.8,64l-2-0.1c-0.3,0-0.6,0.1-1,0.1s-0.7,0-1,0V44.9h6.6c1.9,0,3.3,0.4,4.2,1.2c1,0.8,1.5,2,1.5,3.5
		c0,1.2-0.2,2.2-0.6,3s-1,1.4-1.7,1.8c-0.7,0.4-1.6,0.8-2.6,0.9c-0.5,0.1-1,0.1-1.6,0.2c-0.6,0-1.2,0.1-1.8,0.1V64z"/>
	<path fill="#D24A43" d="M76.8,73.6h-1.3l0.7-1.8L76.8,73.6z M75.2,74.1h1.7c0.1,0.3,0.3,0.8,0.5,1.6c0.3,0,0.6,0,0.6,0
		c0.1,0,0.3,0,0.6,0l-2-5.3c-0.1,0-0.2,0-0.3,0c-0.1,0-0.2,0-0.3,0l-2.1,5.3c0.1,0,0.1,0,0.2,0c0,0,0.1,0,0.2,0s0.1,0,0.2,0
		s0.1,0,0.2,0c0-0.2,0.1-0.5,0.3-0.9C75.2,74.4,75.2,74.1,75.2,74.1z M69.8,75.8h4.1c0-0.1,0-0.1,0-0.2v-0.1v-0.1c0-0.1,0-0.1,0-0.2
		c-0.3,0-0.5,0-0.8,0s-0.6,0-0.9,0s-0.5,0-0.8,0v-0.1c0.2-0.4,0.4-0.7,0.6-1.1s0.4-0.7,0.6-1.1s0.4-0.7,0.6-1.1s0.5-0.8,0.7-1.1
		v-0.1h-3.8c0,0,0,0.1,0,0.2s0,0.1,0,0.1V71c0,0.1,0,0.1,0,0.2c1-0.1,1.7-0.1,2.3-0.1v0.1c-0.4,0.7-0.8,1.5-1.2,2.2
		c-0.4,0.7-0.9,1.5-1.3,2.2L69.8,75.8z M65.5,75.8h4.1c0-0.1,0-0.1,0-0.2v-0.1v-0.1c0-0.1,0-0.1,0-0.2c-0.3,0-0.5,0-0.8,0
		s-0.6,0-0.9,0s-0.5,0-0.8,0v-0.1c0.2-0.4,0.4-0.7,0.6-1.1s0.4-0.7,0.6-1.1s0.4-0.7,0.6-1.1s0.5-0.8,0.7-1.1v-0.1h-3.8
		c0,0,0,0.1,0,0.2s0,0.1,0,0.1V71c0,0.1,0,0.1,0,0.2c1-0.1,1.7-0.1,2.3-0.1v0.1c-0.4,0.7-0.8,1.5-1.2,2.2c-0.4,0.7-0.9,1.5-1.3,2.2
		L65.5,75.8z M63.8,70.5v5.2c0.3,0,0.5,0,0.5,0s0.2,0,0.5,0v-5.2c-0.3,0-0.5,0-0.5,0S64,70.5,63.8,70.5z M60.8,73v-2.1h0.5
		c0.2,0,0.4,0.1,0.5,0.3c0.1,0.2,0.2,0.4,0.2,0.7c0,0.6-0.2,0.9-0.6,1C61.2,73,61,73,60.8,73z M60.8,75.8v-2.3
		c0.7,0,1.3-0.1,1.7-0.4c0.4-0.2,0.6-0.7,0.6-1.3c0-0.9-0.5-1.3-1.6-1.3h-1.8v5.2c0.3,0,0.5,0,0.5,0C60.3,75.8,60.5,75.8,60.8,75.8z
		 M53.5,70.5v5.2c0.3,0,0.5,0,0.5,0c0.1,0,0.2,0,0.5,0v-2.4l1.6,2.4c0.3,0,0.5,0,0.5,0c0.1,0,0.2,0,0.5,0v-0.1l-1.9-2.9
		c0.1-0.2,0.3-0.3,0.4-0.5c0.1-0.1,0.2-0.3,0.3-0.3l1.2-1.3v-0.1c-0.2,0-0.3,0-0.4,0c0,0-0.2,0-0.4,0c-0.6,0.8-1.2,1.6-1.9,2.4v-2.4
		c-0.3,0-0.5,0-0.5,0C54,70.5,53.8,70.5,53.5,70.5z M50.3,72.9v-2c0.3,0,0.6,0,0.8,0.1c0.2,0,0.3,0.2,0.3,0.5c0,0.1,0,0.3,0,0.4
		C51.4,72.6,51.1,73,50.3,72.9z M49.2,70.5v5.2c0.3,0,0.5,0,0.5,0c0.1,0,0.2,0,0.5,0v-2.4l0,0c0.2,0.4,0.4,0.6,0.5,0.8l0.9,1.6
		c0.4,0,0.6,0,0.6,0c0.1,0,0.3,0,0.7,0l-0.3-0.5c-0.2-0.4-0.4-0.7-0.7-1.1c-0.2-0.4-0.4-0.7-0.6-1c0.2,0,0.4-0.1,0.6-0.3
		c0.2-0.1,0.3-0.3,0.4-0.5c0.1-0.2,0.1-0.4,0.1-0.6c0-0.5-0.2-0.9-0.6-1.1c-0.2-0.1-0.6-0.1-1.2-0.1H49.2z M44.3,73.3
		c0-0.8,0.1-1.5,0.4-1.9c0.3-0.4,0.7-0.6,1.2-0.6c0.3,0,0.6,0.1,0.9,0.3c0.2,0.2,0.4,0.5,0.5,0.8s0.2,0.7,0.2,1
		c0,0.4-0.1,0.8-0.2,1.2c-0.1,0.4-0.3,0.7-0.5,0.9c-0.3,0.2-0.6,0.3-0.9,0.3c-0.3,0-0.6-0.1-0.8-0.3c-0.2-0.2-0.4-0.4-0.5-0.8
		C44.4,74,44.3,73.8,44.3,73.3z M45.8,75.8c0.4,0,0.8-0.1,1.2-0.2s0.7-0.3,0.9-0.6c0.2-0.2,0.4-0.5,0.6-0.9c0.1-0.3,0.2-0.7,0.2-1.1
		s-0.1-0.8-0.3-1.3c-0.2-0.4-0.5-0.8-0.9-1c-0.4-0.3-0.9-0.4-1.6-0.4c-0.6,0-1.1,0.1-1.5,0.4c-0.4,0.2-0.8,0.6-1,1s-0.3,0.9-0.3,1.4
		c0,0.8,0.2,1.5,0.7,2C44.3,75.5,45,75.8,45.8,75.8z M40.2,73.5v2.2c0.3,0,0.5,0,0.5,0c0.1,0,0.3,0,0.5,0v-2.3
		c0.1-0.2,0.2-0.5,0.4-0.8c0.1-0.3,0.3-0.6,0.5-1c0.2-0.3,0.4-0.7,0.7-1.2c-0.1,0-0.2,0-0.4,0c-0.1,0-0.2,0-0.4,0
		c-0.2,0.4-0.3,0.7-0.4,1c-0.1,0.3-0.2,0.5-0.4,0.8c-0.1,0.2-0.2,0.4-0.3,0.5c-0.1-0.1-0.2-0.4-0.5-0.9c-0.2-0.5-0.4-0.9-0.6-1.4
		c-0.4,0-0.6,0-0.6,0c-0.1,0-0.3,0-0.7,0c0.1,0.3,0.3,0.5,0.4,0.8c0.1,0.2,0.3,0.5,0.4,0.8c0.1,0.3,0.3,0.6,0.4,0.8
		C40,73,40.1,73.2,40.2,73.5z M29.7,70.5l0.1,0.2c0.1,0.3,0.2,0.6,0.3,1.1c0.1,0.5,0.3,0.9,0.4,1.3c0.1,0.4,0.2,0.8,0.3,1.3
		c0.1,0.4,0.2,0.8,0.3,1.3c0.2,0,0.3,0,0.4,0c0,0,0.2,0,0.4,0c0.2-0.5,0.3-0.9,0.4-1.2c0.1-0.3,0.3-0.7,0.4-1.2
		c0.1-0.5,0.3-0.9,0.4-1.3c0.2,0.6,0.4,1.3,0.6,1.9c0.2,0.6,0.4,1.2,0.5,1.8c0.2,0,0.3,0,0.4,0c0,0,0.2,0,0.4,0
		c0.3-0.9,0.6-1.8,0.8-2.6c0.3-0.8,0.6-1.7,0.9-2.6c-0.1,0-0.2,0-0.3,0s-0.2,0-0.3,0c-0.2,1-0.6,2.3-1.1,3.8
		c-0.1-0.3-0.3-0.9-0.5-1.8c-0.3-0.8-0.5-1.5-0.6-2c-0.1,0-0.2,0-0.4,0c-0.1,0-0.2,0-0.4,0c-0.1,0.2-0.1,0.5-0.2,0.7
		c-0.1,0.3-0.2,0.6-0.3,1s-0.3,0.7-0.3,1c-0.1,0.3-0.2,0.6-0.3,1c-0.2-0.6-0.3-1.3-0.5-1.9s-0.3-1.3-0.5-1.9c-0.3,0-0.5,0-0.6,0
		C30.2,70.5,30,70.5,29.7,70.5z M29.4,70.5h-2.8v5.2h2.8c0-0.2,0-0.3,0-0.3c0-0.1,0-0.2,0-0.3c-0.5,0.1-1,0.1-1.7,0.1v-1.9h0.8
		c0.2,0,0.5,0,0.9,0.1c0-0.2,0-0.3,0-0.3s0-0.1,0-0.3c-0.3,0-0.6,0.1-0.9,0.1h-0.8v-1.6c0.5,0,1.1,0,1.7,0.1c0-0.2,0-0.3,0-0.3
		C29.4,70.8,29.4,70.8,29.4,70.5z M21.2,70.5v5.2h0.1h0.1h0.1c0,0,0,0,0.1,0h0.1V72l0.8,0.9c0.4,0.5,0.8,0.9,1.1,1.2
		c0.3,0.4,0.7,0.9,1.3,1.6h0.6v-5.2c-0.1,0-0.2,0-0.3,0s-0.2,0-0.3,0v3.6c-0.2-0.3-0.5-0.6-0.7-0.9c-0.3-0.3-0.5-0.6-0.7-0.8
		c-0.2-0.2-0.5-0.5-0.8-0.9s-0.6-0.7-0.9-1C21.8,70.5,21.2,70.5,21.2,70.5z"/>
	<path fill="#191A19" d="M70.2,29.6c0.7,0,1.3,0.6,1.3,1.3c0,0.7-0.6,1.3-1.3,1.3c-0.7,0-1.3-0.6-1.3-1.3
		C68.8,30.2,69.3,29.6,70.2,29.6 M70.2,29.2c0.9,0,1.6,0.7,1.6,1.6s-0.7,1.6-1.6,1.6s-1.6-0.7-1.6-1.6
		C68.5,30.1,69.2,29.2,70.2,29.2z"/>
	<path fill="#191A19" d="M69.8,30.8H70c0.2,0,0.2,0,0.3,0c0,0,0.1,0,0.1-0.1v-0.1c0-0.1,0-0.1,0-0.1l-0.1-0.1c0,0-0.1,0-0.2,0h-0.3
		V30.8z M69.4,31.7v-1.6h0.7c0.2,0,0.3,0,0.4,0s0.1,0.1,0.2,0.2c0,0.1,0.1,0.2,0.1,0.2c0,0.1,0,0.2-0.1,0.3C70.7,31,70.5,31,70.3,31
		c0.1,0,0.1,0.1,0.2,0.1c0,0,0.1,0.1,0.2,0.3l0.2,0.3h-0.4l-0.2-0.3c-0.1-0.1-0.1-0.2-0.2-0.2L70,31c0,0-0.1,0-0.2,0l0,0v0.7
		L69.4,31.7L69.4,31.7z"/>
</g>
</svg>
