<?xml version="1.0" encoding="utf-8"?>
<!-- Generator: Adobe Illustrator 19.1.0, SVG Export Plug-In . SVG Version: 6.00 Build 0)  -->
<svg version="1.1" id="Layer_1" xmlns="http://www.w3.org/2000/svg" xmlns:xlink="http://www.w3.org/1999/xlink" x="0px" y="0px"
	 viewBox="-269 430.9 100.1 100.1" style="enable-background:new -269 430.9 100.1 100.1;" xml:space="preserve">
<style type="text/css">
	.st0{fill:#444444;}
</style>
<g>
	<g>
		<g>
			<path class="st0" d="M-190.4,470c-0.1-3-0.6-5.1-1.3-6.9c-0.7-1.9-1.7-3.5-3.3-5c-1.6-1.6-3.2-2.6-5.1-3.3
				c-1.8-0.7-3.9-1.2-7-1.3c-3.1-0.1-4-0.2-11.8-0.2c-7.8,0-8.8,0-11.8,0.2c-3.1,0.1-5.1,0.6-7,1.3c-1.9,0.7-3.5,1.7-5.1,3.3
				c-1.6,1.6-2.6,3.2-3.3,5c-0.7,1.8-1.2,3.9-1.3,6.9c-0.1,3-0.2,4-0.2,11.8c0,7.7,0,8.7,0.2,11.8c0.1,3,0.6,5.1,1.3,6.9
				c0.7,1.9,1.7,3.5,3.3,5c1.6,1.6,3.2,2.6,5.1,3.3c1.8,0.7,3.9,1.2,7,1.3c3.1,0.1,4,0.2,11.8,0.2c7.8,0,8.8,0,11.8-0.2
				c3.1-0.1,5.1-0.6,7-1.3c1.9-0.7,3.5-1.7,5.1-3.3c1.6-1.6,2.6-3.2,3.3-5c0.7-1.8,1.2-3.9,1.3-6.9c0.1-3,0.2-4,0.2-11.8
				S-190.4,473.1-190.4,470z M-195.6,493.3c-0.1,2.8-0.6,4.3-1,5.3c-0.5,1.3-1.1,2.3-2.1,3.3s-2,1.6-3.3,2.1c-1,0.4-2.5,0.9-5.3,1
				c-3,0.1-3.9,0.2-11.6,0.2c-7.7,0-8.6,0-11.6-0.2c-2.8-0.1-4.3-0.6-5.3-1c-1.3-0.5-2.3-1.1-3.3-2.1s-1.6-1.9-2.1-3.3
				c-0.4-1-0.9-2.5-1-5.3c-0.1-3-0.2-3.9-0.2-11.5s0-8.5,0.2-11.5c0.1-2.8,0.6-4.3,1-5.3c0.5-1.3,1.1-2.3,2.1-3.3s2-1.6,3.3-2.1
				c1-0.4,2.5-0.9,5.3-1c3-0.1,3.9-0.2,11.6-0.2c7.7,0,8.6,0,11.6,0.2c2.8,0.1,4.3,0.6,5.3,1c1.3,0.5,2.3,1.1,3.3,2.1
				s1.6,1.9,2.1,3.3c0.4,1,0.9,2.5,1,5.3c0.1,3,0.2,3.9,0.2,11.5C-195.4,489.4-195.6,490.3-195.6,493.3z"/>
		</g>
	</g>
	<g>
		<path class="st0" d="M-215.2,490.4c1.9-0.4,3.7-1.2,5.4-2.2c1.3-0.8,1.7-2.5,0.9-3.8c-0.8-1.3-2.5-1.7-3.8-0.9
			c-3.8,2.4-8.7,2.4-12.5,0c-1.3-0.8-3-0.4-3.8,0.9c-0.8,1.3-0.4,3,0.9,3.8c1.7,1.1,3.5,1.8,5.4,2.2l-5.2,5.2
			c-1.1,1.1-1.1,2.8,0,3.9c0.5,0.5,1.2,0.8,1.9,0.8c0.7,0,1.4-0.3,1.9-0.8l5.1-5.1l5.1,5.1c1.1,1.1,2.8,1.1,3.9,0
			c1.1-1.1,1.1-2.8,0-3.9L-215.2,490.4"/>
		<path class="st0" d="M-218.9,469.7c2.1,0,3.9,1.7,3.9,3.9c0,2.1-1.7,3.8-3.9,3.8c-2.1,0-3.9-1.7-3.9-3.8
			C-222.8,471.4-221.1,469.7-218.9,469.7z M-218.9,482.8c5.1,0,9.3-4.2,9.3-9.3c0-5.1-4.2-9.3-9.3-9.3c-5.1,0-9.3,4.2-9.3,9.3
			C-228.2,478.7-224.1,482.8-218.9,482.8z"/>
	</g>
</g>
</svg>
