<?xml version="1.0" encoding="utf-8"?>
<!-- Generator: Adobe Illustrator 20.1.0, SVG Export Plug-In . SVG Version: 6.00 Build 0)  -->
<svg version="1.1" id="Слой_1" xmlns="http://www.w3.org/2000/svg" xmlns:xlink="http://www.w3.org/1999/xlink" x="0px" y="0px"
	 width="130px" height="61px" viewBox="0 0 130 61" enable-background="new 0 0 130 61" xml:space="preserve">
<g>
	<g>
		<g>
			<path fill="#234345" d="M94.2,22.2C74.2-1.3,55.8,0.4,55,0.5l0,0c-4.3,0.1-7.7,3.7-7.7,8c0,1.1,0.2,2.2,0.7,3.2
				c0,0-14.2,37.8-14.1,37.8v4.3c0,0.4,0.1,0.8,0.5,1c0.2,0.2,0.4,0.2,0.7,0.2c0.1,0,0.3,0,0.4-0.1l24.3-8.3
				c0.5,1.5,1.2,2.9,2.9,2.9c1,0,1.8-0.3,2.4-0.9c0.9-1,1.1-2.5,1.1-4.1L91.2,36c2-0.6,5.8-3,5.7-7.8c0-1.8-0.6-3.6-1.8-5L94.2,22.2
				z M55.1,3L55.1,3C55.2,3,55.2,3,55.1,3c0.3,0,16.6-1.5,34.7,17.9c-2.5-0.1-4.6,0.7-6.2,2.4c-1,1.1-1.7,2.6-1.9,4.1
				C73,17,62.6,11.5,50,10.5c-0.3-0.6-0.4-1.3-0.4-2C49.6,5.5,52.1,3,55.1,3z M36.2,52.2V50l21-7.7c0.4-0.2,0.8-0.2,0.9-0.1
				c0.4,0.2,0.7,1.3,0.9,2.3L36.2,52.2z M52.2,40.5c-3,0-5.6-1.7-5.6-3.7s2.6-3.7,5.6-3.7s5.6,1.7,5.6,3.7S55.3,40.5,52.2,40.5z
				 M63.6,43.5c0,1.3,0.1,3-0.4,3.5c0,0-0.2,0.2-0.7,0.2s-0.8-1.7-1-2.7c-0.4-1.8-0.8-3.8-2.3-4.6h-0.1c0.7-0.9,1.1-2,1.1-3.1
				c0-3.5-3.5-6.2-8-6.2s-8,2.7-8,6.2c0,2.7,2.1,4.9,5.1,5.8L37,47.1l9.6-25.2l0,0c0,3.5,3.5,6.2,8,6.2s8-2.7,8-6.2s-3.5-6.2-8-6.2
				c-2.9,0-5.3,1.1-6.7,2.8l2.1-5.5c12.5,0.9,22.8,6.8,31.2,17.8l-14.7,5.5l0,0l0,0C63.5,37.5,63.6,40.8,63.6,43.5z M49,21.9
				c0-2,2.6-3.7,5.6-3.7s5.6,1.7,5.6,3.7s-2.6,3.7-5.6,3.7C51.6,25.7,49,24,49,21.9z M90.4,33.8L66,42.4c0-1.8,0.2-3.1,1.3-3.1l0,0
				l15.8-6.1c0.1,0,0.2-0.1,0.3-0.1c0.2,0,0.4-0.1,0.6-0.3c0.5-0.3,0.7-1.1,0.5-1.6c-0.9-2-0.5-4.3,0.9-5.9c1.6-1.8,4.1-3.3,7.1-0.8
				l0,0l0.8,0.7c0.8,1,1.2,2.1,1.2,3.4C94.4,32.6,90.7,33.7,90.4,33.8z M109.8,38.6l-0.7,1.9l19.7,7.3l0.7-1.9L109.8,38.6z
				 M127.4,30.1l-0.3-2l-13.8,2.4l0.3,2L127.4,30.1z M106.2,50l9,10.6l1.5-1.3l-9-10.6L106.2,50z M0.5,13.7l18.9,9.1l0.9-1.8
				L1.4,11.8L0.5,13.7z M14.3,2.2l7.8,11.6l1.7-1.1L16,1.1L14.3,2.2z M0.7,30.6l0.1,2l13.9-1l-0.1-2L0.7,30.6z"/>
		</g>
	</g>
</g>
</svg>
