<?xml version="1.0" encoding="utf-8"?>
<!-- Generator: Adobe Illustrator 20.1.0, SVG Export Plug-In . SVG Version: 6.00 Build 0)  -->
<svg version="1.1" id="Слой_1" xmlns="http://www.w3.org/2000/svg" xmlns:xlink="http://www.w3.org/1999/xlink" x="0px" y="0px"
	 width="64px" height="55px" viewBox="0 0 64 55" enable-background="new 0 0 64 55" xml:space="preserve">
<g>
	<g>
		<g>
			<path fill="#D24A43" d="M61.7,23.1l-1-1.1C40.7-1.5,22.3,0.2,21.5,0.3l0,0c-4.3,0.1-7.7,3.7-7.7,8c0,1.1,0.2,2.2,0.7,3.2
				c0,0-14.2,37.8-14.1,37.8v4.3c0,0.4,0.1,0.8,0.5,1c0.2,0.2,0.4,0.2,0.7,0.2c0.1,0,0.3,0,0.4-0.1l24.3-8.3
				c0.5,1.5,1.2,2.9,2.9,2.9c1,0,1.8-0.3,2.4-0.9c0.9-1,1.1-2.5,1.1-4.1l25.1-8.5c2-0.6,5.8-3,5.7-7.8
				C63.5,26.3,62.9,24.6,61.7,23.1z M21.7,2.8L21.7,2.8C21.8,2.8,21.8,2.8,21.7,2.8c0.3,0,16.6-1.5,34.7,17.9
				c-2.5-0.1-4.6,0.7-6.2,2.4c-1,1.1-1.7,2.6-1.9,4.1c-8.6-10.4-19-15.9-31.6-16.9c-0.3-0.6-0.4-1.3-0.4-2
				C16.2,5.3,18.7,2.8,21.7,2.8z M2.8,52v-2.2l21-7.7c0.4-0.2,0.8-0.2,0.9-0.1c0.4,0.2,0.7,1.3,0.9,2.3L2.8,52z M18.8,40.3
				c-3,0-5.6-1.7-5.6-3.7s2.6-3.7,5.6-3.7s5.6,1.7,5.6,3.7S21.9,40.3,18.8,40.3z M30.2,43.3c0,1.3,0.1,3-0.4,3.5
				c0,0-0.2,0.2-0.7,0.2s-0.8-1.7-1-2.7c-0.4-1.8-0.8-3.8-2.3-4.6h-0.1c0.7-0.9,1.1-2,1.1-3.1c0-3.5-3.5-6.2-8-6.2s-8,2.7-8,6.2
				c0,2.7,2.1,4.9,5.1,5.8L3.6,46.9l9.6-25.2l0,0c0,3.5,3.5,6.2,8,6.2s8-2.7,8-6.2s-3.5-6.2-8-6.2c-2.9,0-5.3,1.1-6.7,2.8l2.1-5.5
				c12.5,0.9,22.8,6.8,31.2,17.8l-14.7,5.5l0,0l0,0C30.1,37.3,30.2,40.6,30.2,43.3z M15.6,21.7c0-2,2.6-3.7,5.6-3.7s5.6,1.7,5.6,3.7
				s-2.6,3.7-5.6,3.7C18.2,25.5,15.6,23.8,15.6,21.7z M57.1,33.6l-24.4,8.6c0-1.8,0.2-3.1,1.3-3.1l0,0L49.8,33
				c0.1,0,0.2-0.1,0.3-0.1c0.2,0,0.4-0.1,0.6-0.3c0.5-0.3,0.7-1.1,0.5-1.6c-0.9-2-0.5-4.3,0.9-5.9c1.6-1.8,4.1-3.3,7.1-0.8l0,0
				L60,25c0.8,1,1.2,2.1,1.2,3.4C61.1,32.4,57.3,33.5,57.1,33.6z"/>
		</g>
	</g>
</g>
</svg>
