<?xml version="1.0" encoding="utf-8"?>
<!-- Generator: Adobe Illustrator 20.1.0, SVG Export Plug-In . SVG Version: 6.00 Build 0)  -->
<svg version="1.1" id="Слой_1" xmlns="http://www.w3.org/2000/svg" xmlns:xlink="http://www.w3.org/1999/xlink" x="0px" y="0px"
	 width="37px" height="45px" viewBox="0 0 37 45" enable-background="new 0 0 37 45" xml:space="preserve">
<g>
	<path fill="#ffffff" d="M20.9,44.5c-0.7,0-1.5-0.2-2.1-0.6c-1.2-0.7-1.9-2-1.9-3.4V11.5c0-1.5,0.9-3,2.3-3.6l11.5-5.4
		c1.2-0.6,2.7-0.5,3.9,0.2c1.2,0.7,1.9,2,1.9,3.4v29.1c0,1.5-0.9,3-2.3,3.6l-11.5,5.5C22.1,44.5,21.5,44.5,20.9,44.5z M32.4,4.1
		c-0.3,0-0.6,0.1-0.9,0.2L20,9.8c-0.7,0.3-1.1,1-1.1,1.8v29.1c0,0.7,0.3,1.3,0.9,1.7s1.3,0.4,1.9,0.1L33.2,37l0,0
		c0.7-0.3,1.1-1,1.1-1.8V6.1c0-0.7-0.3-1.3-0.9-1.7C33.2,4.2,32.8,4.1,32.4,4.1z"/>
</g>
<g>
	<path fill="#ffffff" d="M12.4,18.6h-11c-0.6,0-1-0.4-1-1s0.4-1,1-1h11c0.6,0,1,0.4,1,1S13,18.6,12.4,18.6z"/>
</g>
<g>
	<path fill="#ffffff" d="M6.9,24c-0.3,0-0.5-0.1-0.7-0.3c-0.4-0.4-0.4-1,0-1.4l4.8-4.8l-4.4-4.4c-0.4-0.4-0.4-1,0-1.4s1-0.4,1.4,0
		l5.1,5.1c0.4,0.4,0.4,1,0,1.4l-5.5,5.5C7.4,23.9,7.1,24,6.9,24z"/>
</g>
<g>
	<circle fill="#ffffff" cx="22.8" cy="24.4" r="1.5"/>
</g>
<g>
	<path fill="#ffffff" d="M18.4,36.5h-8.2c-1,0-1.8-0.8-1.8-1.8v-8.2c0-0.6-0.4-1-1-1l0,0c-0.6,0-1,0.4-1,1V34c0,2.4,2,4.4,4.4,4.4
		h7.6V36.5z"/>
	<path fill="#ffffff" d="M32.7,0.5H10.2c-2.1,0-3.8,1.7-3.8,3.7v4.3c0,0.6,0.4,1,1,1l0,0c0.6,0,1-0.4,1-1V4.3c0-1,0.8-1.8,1.8-1.8
		h22.3c1,0,1.8,0.8,1.8,1.8v25.2h2V4.3C36.4,2.2,34.8,0.5,32.7,0.5z"/>
</g>
</svg>
