<?xml version="1.0" encoding="utf-8"?>
<!-- Generator: Adobe Illustrator 20.1.0, SVG Export Plug-In . SVG Version: 6.00 Build 0)  -->
<svg version="1.1" id="Слой_1" xmlns="http://www.w3.org/2000/svg" xmlns:xlink="http://www.w3.org/1999/xlink" x="0px" y="0px"
	 width="20px" height="27px" viewBox="0 0 20 27" enable-background="new 0 0 20 27" xml:space="preserve">
<path fill="#555454" d="M0,16.6h3v2.2H0v3.5h3V27h4.8v-4.7h6.1v-3.5H7.8v-2.2h2.6c1.2,0,2.4-0.1,3.6-0.4c1.1-0.3,2.2-0.8,3-1.4
	c0.9-0.7,1.6-1.5,2.1-2.6S20,9.8,20,8.2c0-1.7-0.3-3-0.8-4.1S17.9,2.2,17,1.6c-0.9-0.6-2-1-3.2-1.3S11.3,0,10,0
	C8.7,0,7.5,0.1,6.4,0.2S4.1,0.5,3,0.7v12.5H0V16.6z M7.8,4.4c0.3-0.1,0.6-0.1,1.1-0.1c0.5,0,0.9-0.1,1.4-0.1c1.3,0,2.4,0.3,3.2,1
	c0.8,0.6,1.3,1.7,1.3,3.3c0,0.8-0.1,1.6-0.4,2.1c-0.3,0.6-0.6,1.1-1.1,1.4c-0.5,0.4-1,0.6-1.6,0.8c-0.6,0.2-1.3,0.2-2,0.2h-2V4.4z"
	/>
</svg>
