<?xml version="1.0" encoding="utf-8"?>
<!-- Generator: Adobe Illustrator 20.1.0, SVG Export Plug-In . SVG Version: 6.00 Build 0)  -->
<svg version="1.1" id="Слой_1" xmlns="http://www.w3.org/2000/svg" xmlns:xlink="http://www.w3.org/1999/xlink" x="0px" y="0px"
	 width="120px" height="104px" viewBox="0 0 120 104" enable-background="new 0 0 120 104" xml:space="preserve">
<g>
	<g>
		<g>
			<path fill="#0E0F0F" d="M98.6,82.8l16,13.6l1.3-1.5l-16-13.6L98.6,82.8z M106.1,74.9l-0.4,2l13.7,2.5l0.4-2L106.1,74.9z
				 M92.5,90.7l4.8,13l1.9-0.7l-4.8-13L92.5,90.7z M0.2,6.3l17.5,11.6l1.1-1.7L1.3,4.6L0.2,6.3z M18.4,0.4c-0.5,0.2-0.7,0.8-0.5,1.3
				l3.7,7.6l1.8-0.9l-3.7-7.5C19.5,0.4,18.9,0.2,18.4,0.4z M1.9,25.1L15.8,25l0.2-2L2.1,23.1L1.9,25.1z"/>
		</g>
	</g>
	<g>
		<g>
			<path fill="#0E0F0F" d="M105.5,44.3c-3-4.8-9.9-4.2-15-1.6c-4.7,2.4-7.3,6.7-8.5,9.9c0-0.3,0-0.7,0-1c0-9.5-7.7-17.2-17.1-17.2
				c-7.7,0-14.1,5.1-16.3,12.1c-1.4-4.1-3-7.8-4.4-10.5s-3.3-5.1-8.2-4c-0.3-1.1-0.6-2.1-0.9-2.9c1.1-0.4,2.6-1.1,3.3-2.1
				c1.2-1.7,1.4-3.6,0.5-5.2c-0.9-1.7-2.8-2.7-4.5-2.5c-1.1,0.1-2,0.6-2.6,1.2c-0.4-0.9-0.9-1.8-1.8-2.3c-0.6-0.4-1.6-0.7-2.8-0.1
				c-1.9,0.8-2.9,1.8-3.1,3.2c-0.1,0.9,0.2,1.8,0.6,2.5c-1,0.2-2.1,0.6-2.9,1.4c-0.7,0.7-1.1,1.7-1.1,2.8c0.1,2.1,1.4,3.8,3.4,4.3
				c1.3,0.4,2.6,0.2,3.9-0.4c0,0.2,0,0.5,0.1,0.7l0.4,0.7c0.3,0.6,0.6,1.1,0.9,1.6c-2.4,1.9-3.6,5.2-2.6,8.3c1.1,3.8,3.3,9,5.9,14
				c-2.3,0.6-2.5,1.2-2.5,1.9c0,0.3,0,0.6,0.2,0.8c0.5,2.2,1.8,7.3,3.1,9.1c3.3,4.4,7.7,6.5,10.7,7.5c0.7,3.2,9.3,5.2,17.3,5.2
				c8.1,0,16.7-2,17.4-5.2c2.9-1,7.3-3.2,10.5-7.4c1.3-1.7,2.5-6.5,3-8.9c0.4-0.3,0.5-0.7,0.5-1.1l0,0c1.1-0.2,2.3-0.6,3.6-1
				c5.3-1.9,8.8-4.7,9.9-7.8C106.9,48.2,106.6,46.2,105.5,44.3z M75.6,41.5c-2.1,0.6-4.4,1-6.8,1.2c1.3-1.7,1.8-3.3,2-4.6
				C72.7,38.9,74.3,40,75.6,41.5z M68.7,37.3c0,0.1-0.1,0.1-0.1,0.2c-0.2,1.3-0.7,3.1-2.6,5c-1.4-1.6-2.6-4.2-3-5.2
				c0-0.1-0.1-0.2-0.2-0.3c0.7-0.1,1.3-0.2,2-0.2C66.1,36.7,67.4,36.9,68.7,37.3z M60.8,37.3c-0.1,0.2-0.1,0.5,0,0.7
				c0.1,0.1,0.9,2.4,2.3,4.5c-2.3-0.3-4.1-0.7-5.5-1.1c-0.6-0.2-1.3,0.2-1.5,0.8s0.2,1.3,0.8,1.5c1.5,0.5,3.5,0.9,5.9,1.2
				c-1,0.6-2.1,1.1-3.4,1.6c-0.6,0.2-0.9,0.9-0.7,1.5c0.2,0.5,0.6,0.8,1.1,0.8c0.1,0,0.3,0,0.4-0.1c2.2-0.8,4.1-1.9,5.7-3.1
				c3.8,2.6,7.8,3.2,8,3.2H74c0.6,0,1.1-0.4,1.2-1c0.1-0.6-0.4-1.2-1-1.3c0,0-2.1-0.3-4.6-1.4c2.5-0.2,4.9-0.6,7.1-1.3
				c0.1,0,0.3-0.1,0.4-0.2c1.6,2.4,2.5,5.2,2.5,8.2c0,3.1-1,6-2.6,8.4c-4.3,0.2-9.6,0.4-15.7,0.4c-3.2,0-6.3,0-9-0.1
				c-0.5-2.8-1.3-5.9-2.3-9C50.2,44.6,54.7,39,60.8,37.3z M24.6,29.9c-1-0.3-1.6-1.1-1.7-2.2c0-0.5,0.1-0.8,0.4-1.1
				c0.9-0.8,2.9-0.9,3.6-0.9c0.5,0,1-0.3,1.2-0.7c0.2-0.5,0-1-0.4-1.3c-0.5-0.4-1.5-1.5-1.3-2.2c0.1-0.7,1.1-1.1,1.7-1.4
				c0.5-0.2,0.7-0.1,0.8,0c0.7,0.4,1.2,2.1,1.3,3.1c0.1,0.5,0.5,1,1,1c0.6,0.1,1.1-0.3,1.2-0.8c0-0.1,0.6-1.8,2.2-1.9
				c0.8-0.1,1.8,0.5,2.3,1.3c0.3,0.6,0.6,1.5-0.3,2.7c-0.5,0.7-2.2,1.3-3.2,1.6c-0.3,0.1-0.6,0.3-0.7,0.6c-0.2,0.3-0.2,0.6-0.1,0.9
				c0,0,0.6,2,1.2,3.9c-0.7,0.3-1.6,0.6-2.4,1c-0.4-0.6-0.7-1.2-0.9-1.6l-0.4-0.7c-0.1-0.3-0.4-0.4-0.6-0.5c0.5-0.5,1.1-1,1.5-1.7
				c0.4-0.5,0.2-1.3-0.3-1.6c-0.5-0.4-1.3-0.2-1.6,0.3C27.5,29.9,25.7,30.2,24.6,29.9z M30.6,35.3L30.6,35.3
				C30.6,35.3,30.6,35.4,30.6,35.3C30.6,35.4,30.6,35.3,30.6,35.3z M30.6,36.7c0.7-0.3,6.1-2.6,6.7-2.6c1.9,0,3.8,1.1,4.8,2.9
				c0.4,0.7,0.8,1.5,1.2,2.4l-7,2.9c-0.6,0.2-0.9,0.9-0.6,1.5c0.2,0.5,0.6,0.7,1.1,0.7c0.1,0,0.3,0,0.4-0.1l7.1-2.9
				c2.3,5.6,4.6,12.9,5.8,18.6c-6-0.2-10.6-0.6-13.7-0.9c-0.2-0.4-0.4-0.8-0.6-1.2c0-0.2,0-0.3-0.1-0.5c-0.1-0.1-0.2-0.1-0.3-0.2
				c-0.2-0.3-0.4-0.7-0.5-1c0.1,0,0.2,0,0.2,0c0.1,0,0.3,0,0.4-0.1l7.7-3.2c0.6-0.2,0.9-0.9,0.6-1.5c-0.2-0.6-0.9-0.9-1.5-0.6
				l-7.7,3.2c-0.3,0.1-0.5,0.3-0.6,0.6c-2.2-4.5-4-9-5-12.3C28.2,40.2,29,38,30.6,36.7z M87.3,67.6c-3.1,4.1-7.5,6-10.1,6.9
				c-0.8,0.3-1.4,0.9-1.7,1.7c-0.2,0.7-0.7,1.3-1.4,1.5c-2.4,0.9-6.8,1.7-12.8,1.7c-6.2,0-10.6-0.8-13-1.8c-0.7-0.3-1.2-0.8-1.4-1.4
				c-0.2-0.8-0.8-1.4-1.7-1.7c-2.6-0.8-7-2.7-10.1-6.9c-0.7-1-1.6-3.9-2.3-6.5c1.5,0.3,3.7,0.6,7,0.9c5.7,0.5,13.3,0.7,21.4,0.7
				s15.7-0.3,21.4-0.7c3.2-0.3,5.3-0.5,6.8-0.9C88.9,63.7,88,66.6,87.3,67.6z M104,49.4c-0.8,2.4-4,4.8-8.5,6.4
				c-2.7,1-6.7,2.6-8,3.3c-1.6,0.2-3.8,0.5-6.5,0.7c1.8-2,3.6-3.8,5.3-5.3c0.5-0.2,1.7-0.6,3.7-0.6h0.1c2.7,0,5.1,1.1,5.1,1.1
				c0.2,0.1,0.3,0.2,0.5,0.2c0.4,0,0.9-0.3,1.1-0.7c0.3-0.6,0-1.3-0.6-1.6c-0.1,0-2.2-1-5-1.3c4.9-1.8,8.9-2.1,9-2.1
				c0.6,0,1.1-0.6,1.1-1.2c0-0.6-0.6-1.1-1.2-1.1c-0.4,0-5.4,0.3-11.4,2.8c-1.1,0.5-2.4,1.3-3.7,2.4c-0.1,0-0.1,0.1-0.1,0.1
				c-0.2,0.1-0.3,0.2-0.4,0.4c-0.1,0.1-0.2,0.2-0.3,0.3c1.2-2.8,3.4-6.3,7.3-8.4c3.5-1.8,9.6-3.1,12,0.7
				C104.3,46.8,104.5,48.1,104,49.4z"/>
		</g>
	</g>
</g>
</svg>
