<?xml version="1.0" encoding="utf-8"?>
<!-- Generator: Adobe Illustrator 20.1.0, SVG Export Plug-In . SVG Version: 6.00 Build 0)  -->
<svg version="1.1" id="Слой_1" xmlns="http://www.w3.org/2000/svg" xmlns:xlink="http://www.w3.org/1999/xlink" x="0px" y="0px"
	 width="86px" height="64px" viewBox="0 0 86 64" enable-background="new 0 0 86 64" xml:space="preserve">
<g>
	<g>
		<g>
			<path fill="#D24A43" d="M84.8,26.6c-3-4.8-9.9-4.2-15-1.6c-4.7,2.4-7.3,6.7-8.5,9.9c0-0.3,0-0.7,0-1c0-9.5-7.7-17.2-17.1-17.2
				c-7.7,0-14.1,5.1-16.3,12.1c-1.4-4.1-3-7.8-4.4-10.5s-3.3-5.1-8.2-4c-0.3-1.1-0.6-2.1-0.9-2.9c1.1-0.4,2.6-1.1,3.3-2.1
				c1.2-1.7,1.4-3.6,0.5-5.2c-0.9-1.7-2.8-2.7-4.5-2.5c-1.1,0.1-2,0.6-2.6,1.2C10.7,1.9,10.2,1,9.3,0.5C8.7,0.1,7.7-0.2,6.5,0.4
				C4.6,1.2,3.6,2.2,3.4,3.6C3.3,4.5,3.6,5.4,4,6.1C3,6.3,1.9,6.7,1.1,7.5C0.4,8.2,0,9.2,0,10.3c0.1,2.1,1.4,3.8,3.4,4.3
				C4.7,15,6,14.8,7.3,14.2c0,0.2,0,0.5,0.1,0.7l0.4,0.7c0.3,0.6,0.6,1.1,0.9,1.6c-2.4,1.9-3.6,5.2-2.6,8.3c1.1,3.8,3.3,9,5.9,14
				c-2.3,0.6-2.5,1.2-2.5,1.9c0,0.3,0,0.6,0.2,0.8c0.5,2.2,1.8,7.3,3.1,9.1c3.3,4.4,7.7,6.5,10.7,7.5C24.2,62,32.8,64,40.8,64
				c8.1,0,16.7-2,17.4-5.2c2.9-1,7.3-3.2,10.5-7.4c1.3-1.7,2.5-6.5,3-8.9c0.4-0.3,0.5-0.7,0.5-1.1l0,0c1.1-0.2,2.3-0.6,3.6-1
				c5.3-1.9,8.8-4.7,9.9-7.8C86.2,30.5,85.9,28.5,84.8,26.6z M54.9,23.8c-2.1,0.6-4.4,1-6.8,1.2c1.3-1.7,1.8-3.3,2-4.6
				C52,21.2,53.6,22.3,54.9,23.8z M48,19.6c0,0.1-0.1,0.1-0.1,0.2c-0.2,1.3-0.7,3.1-2.6,5c-1.4-1.6-2.6-4.2-3-5.2
				c0-0.1-0.1-0.2-0.2-0.3c0.7-0.1,1.3-0.2,2-0.2C45.4,19,46.7,19.2,48,19.6z M40.1,19.6c-0.1,0.2-0.1,0.5,0,0.7
				c0.1,0.1,0.9,2.4,2.3,4.5c-2.3-0.3-4.1-0.7-5.5-1.1c-0.6-0.2-1.3,0.2-1.5,0.8s0.2,1.3,0.8,1.5c1.5,0.5,3.5,0.9,5.9,1.2
				c-1,0.6-2.1,1.1-3.4,1.6c-0.6,0.2-0.9,0.9-0.7,1.5c0.2,0.5,0.6,0.8,1.1,0.8c0.1,0,0.3,0,0.4-0.1c2.2-0.8,4.1-1.9,5.7-3.1
				c3.8,2.6,7.8,3.2,8,3.2h0.1c0.6,0,1.1-0.4,1.2-1s-0.4-1.2-1-1.3c0,0-2.1-0.3-4.6-1.4c2.5-0.2,4.9-0.6,7.1-1.3
				c0.1,0,0.3-0.1,0.4-0.2c1.6,2.4,2.5,5.2,2.5,8.2c0,3.1-1,6-2.6,8.4c-4.3,0.2-9.6,0.4-15.7,0.4c-3.2,0-6.3,0-9-0.1
				c-0.5-2.8-1.3-5.9-2.3-9C29.5,26.9,34,21.3,40.1,19.6z M3.9,12.2c-1-0.3-1.6-1.1-1.7-2.2c0-0.5,0.1-0.8,0.4-1.1
				C3.5,8.1,5.5,8,6.2,8c0.5,0,1-0.3,1.2-0.7c0.2-0.5,0-1-0.4-1.3C6.5,5.6,5.5,4.5,5.7,3.8c0.1-0.7,1.1-1.1,1.7-1.4
				c0.5-0.2,0.7-0.1,0.8,0c0.7,0.4,1.2,2.1,1.3,3.1c0.1,0.5,0.5,1,1,1c0.6,0.1,1.1-0.3,1.2-0.8c0-0.1,0.6-1.8,2.2-1.9
				c0.8-0.1,1.8,0.5,2.3,1.3c0.3,0.6,0.6,1.5-0.3,2.7c-0.5,0.7-2.2,1.3-3.2,1.6C12.4,9.5,12.1,9.7,12,10c-0.2,0.3-0.2,0.6-0.1,0.9
				c0,0,0.6,2,1.2,3.9c-0.7,0.3-1.6,0.6-2.4,1c-0.4-0.6-0.7-1.2-0.9-1.6l-0.4-0.7C9.3,13.2,9,13.1,8.8,13c0.5-0.5,1.1-1,1.5-1.7
				c0.4-0.5,0.2-1.3-0.3-1.6C9.5,9.3,8.7,9.5,8.4,10C6.8,12.2,5,12.5,3.9,12.2z M9.9,17.6L9.9,17.6C9.9,17.6,9.9,17.7,9.9,17.6
				C9.9,17.7,9.9,17.6,9.9,17.6z M9.9,19c0.7-0.3,6.1-2.6,6.7-2.6c1.9,0,3.8,1.1,4.8,2.9c0.4,0.7,0.8,1.5,1.2,2.4l-7,2.9
				c-0.6,0.2-0.9,0.9-0.6,1.5c0.2,0.5,0.6,0.7,1.1,0.7c0.1,0,0.3,0,0.4-0.1l7.1-2.9c2.3,5.6,4.6,12.9,5.8,18.6
				c-6-0.2-10.6-0.6-13.7-0.9c-0.2-0.4-0.4-0.8-0.6-1.2c0-0.2,0-0.3-0.1-0.5c-0.1-0.1-0.2-0.1-0.3-0.2c-0.2-0.3-0.4-0.7-0.5-1
				c0.1,0,0.2,0,0.2,0c0.1,0,0.3,0,0.4-0.1l7.7-3.2c0.6-0.2,0.9-0.9,0.6-1.5c-0.2-0.6-0.9-0.9-1.5-0.6l-7.7,3.2
				c-0.3,0.1-0.5,0.3-0.6,0.6c-2.2-4.5-4-9-5-12.3C7.5,22.5,8.3,20.3,9.9,19z M66.6,49.9c-3.1,4.1-7.5,6-10.1,6.9
				c-0.8,0.3-1.4,0.9-1.7,1.7c-0.2,0.7-0.7,1.3-1.4,1.5c-2.4,0.9-6.8,1.7-12.8,1.7c-6.2,0-10.6-0.8-13-1.8c-0.7-0.3-1.2-0.8-1.4-1.4
				c-0.2-0.8-0.8-1.4-1.7-1.7c-2.6-0.8-7-2.7-10.1-6.9c-0.7-1-1.6-3.9-2.3-6.5c1.5,0.3,3.7,0.6,7,0.9c5.7,0.5,13.3,0.7,21.4,0.7
				s15.7-0.3,21.4-0.7c3.2-0.3,5.3-0.5,6.8-0.9C68.2,46,67.3,48.9,66.6,49.9z M83.3,31.7c-0.8,2.4-4,4.8-8.5,6.4
				c-2.7,1-6.7,2.6-8,3.3c-1.6,0.2-3.8,0.5-6.5,0.7c1.8-2,3.6-3.8,5.3-5.3c0.5-0.2,1.7-0.6,3.7-0.6h0.1c2.7,0,5.1,1.1,5.1,1.1
				c0.2,0.1,0.3,0.2,0.5,0.2c0.4,0,0.9-0.3,1.1-0.7c0.3-0.6,0-1.3-0.6-1.6c-0.1,0-2.2-1-5-1.3c4.9-1.8,8.9-2.1,9-2.1
				c0.6,0,1.1-0.6,1.1-1.2c0-0.6-0.6-1.1-1.2-1.1c-0.4,0-5.4,0.3-11.4,2.8c-1.1,0.5-2.4,1.3-3.7,2.4c-0.1,0-0.1,0.1-0.1,0.1
				c-0.2,0.1-0.3,0.2-0.4,0.4c-0.1,0.1-0.2,0.2-0.3,0.3c1.2-2.8,3.4-6.3,7.3-8.4c3.5-1.8,9.6-3.1,12,0.7
				C83.6,29.1,83.8,30.4,83.3,31.7z"/>
		</g>
	</g>
</g>
</svg>
