<?xml version="1.0" encoding="utf-8"?>
<!-- Generator: Adobe Illustrator 20.1.0, SVG Export Plug-In . SVG Version: 6.00 Build 0)  -->
<svg version="1.1" id="Слой_1" xmlns="http://www.w3.org/2000/svg" xmlns:xlink="http://www.w3.org/1999/xlink" x="0px" y="0px"
	 width="83px" height="78px" viewBox="0 0 83 78" enable-background="new 0 0 83 78" xml:space="preserve">
<polygon fill="#161516" points="0.4,75.9 22.4,56.5 23.6,58 1.6,77.6 "/>
<rect x="19.1" y="66.3" transform="matrix(0.3818 -0.9242 0.9242 0.3818 -46.3828 65.1795)" fill="#161516" width="12.9" height="2"/>
<rect x="7.8" y="52.1" transform="matrix(0.9601 -0.2796 0.2796 0.9601 -14.2729 6.1035)" fill="#161516" width="12.9" height="2"/>
<g>
	<path fill="#0E0F0F" d="M52.3,61C35.6,61,22,47.5,22,30.8S35.6,0.5,52.3,0.5S82.6,14,82.6,30.7S69,61,52.3,61z M52.3,2.4
		C36.7,2.4,24,15.1,24,30.7S36.6,59,52.3,59s28.3-12.7,28.3-28.3S67.9,2.4,52.3,2.4z"/>
</g>
<g>
	<path fill="#0E0F0F" d="M52.3,54.7c-13.2,0-23.9-10.7-23.9-23.9S39.1,6.9,52.3,6.9s23.9,10.7,23.9,23.9S65.5,54.7,52.3,54.7z
		 M52.3,8.8c-12.1,0-21.9,9.8-21.9,21.9s9.8,21.9,21.9,21.9s21.9-9.8,21.9-21.9S64.4,8.8,52.3,8.8z"/>
</g>
<g>
	<path fill="#0E0F0F" d="M44.6,16.7c-3.4,0-6.1,2.7-6.1,6.1c0,3.4,2.7,6.1,6.1,6.1c3.4,0,6.1-2.7,6.1-6.1
		C50.8,19.4,48,16.7,44.6,16.7z M48,20.5c0.6,0,1,0.5,1,1s-0.5,1-1,1s-1-0.5-1-1S47.4,20.5,48,20.5z M41,24.5c-0.6,0-1-0.5-1-1
		s0.5-1,1-1s1,0.5,1,1S41.5,24.5,41,24.5z M42,19.8c0-0.9,0.8-1.7,1.7-1.7s1.7,0.8,1.7,1.7s-0.8,1.7-1.7,1.7S42,20.8,42,19.8z
		 M45,27.5c-0.6,0-1-0.5-1-1s0.5-1,1-1s1,0.5,1,1S45.5,27.5,45,27.5z M45,24.5c-0.6,0-1-0.5-1-1s0.5-1,1-1s1,0.5,1,1
		S45.5,24.5,45,24.5z M48,25.5c-0.6,0-1-0.5-1-1s0.5-1,1-1s1,0.5,1,1S48.5,25.5,48,25.5z"/>
</g>
<g>
	<path fill="#0E0F0F" d="M58.6,31c-3.4,0-6.1,2.7-6.1,6.1s2.7,6.1,6.1,6.1s6.1-2.7,6.1-6.1C64.8,33.7,62,31,58.6,31z M62,34.8
		c0.6,0,1,0.5,1,1s-0.5,1-1,1s-1-0.5-1-1S61.4,34.8,62,34.8z M55,38.8c-0.6,0-1-0.5-1-1s0.5-1,1-1s1,0.5,1,1S55.5,38.8,55,38.8z
		 M56,34.1c0-0.9,0.8-1.7,1.7-1.7s1.7,0.8,1.7,1.7s-0.8,1.7-1.7,1.7S56,35,56,34.1z M59,41.8c-0.6,0-1-0.5-1-1s0.5-1,1-1s1,0.5,1,1
		S59.5,41.8,59,41.8z M59,38.8c-0.6,0-1-0.5-1-1s0.5-1,1-1s1,0.5,1,1S59.5,38.8,59,38.8z M62,39.8c-0.6,0-1-0.5-1-1s0.5-1,1-1
		s1,0.5,1,1S62.5,39.8,62,39.8z"/>
</g>
<g>
	<path fill="#0E0F0F" d="M40.5,40.8c-0.2,0-0.4-0.1-0.6-0.2c-0.5-0.3-0.6-0.9-0.2-1.4c0.4-0.5,3.5-4.9,5-5.9
		c1.4-0.9,2.9-1.9,4.4-2.8c3.1-1.9,6.2-3.9,8.1-5.7c1.2-1.1,3.9-5.3,4.9-6.8c0.3-0.5,0.9-0.6,1.4-0.3s0.6,0.9,0.3,1.4
		c-0.4,0.6-3.6,5.7-5.2,7.2c-2,1.9-5.3,3.9-8.4,5.9c-1.5,0.9-3,1.9-4.4,2.8c-0.9,0.6-3.2,3.6-4.5,5.4C41.1,40.7,40.8,40.8,40.5,40.8
		z"/>
</g>
</svg>
