<?xml version="1.0" encoding="utf-8"?>
<!-- Generator: Adobe Illustrator 20.1.0, SVG Export Plug-In . SVG Version: 6.00 Build 0)  -->
<svg version="1.1" id="Слой_1" xmlns="http://www.w3.org/2000/svg" xmlns:xlink="http://www.w3.org/1999/xlink" x="0px" y="0px"
	 width="61px" height="61px" viewBox="0 0 61 61" enable-background="new 0 0 61 61" xml:space="preserve">
<g>
	<path fill="#D24A43" d="M30.5,60.8c-16.7,0-30.3-13.6-30.3-30.3S13.8,0.2,30.5,0.2s30.3,13.6,30.3,30.3S47.2,60.8,30.5,60.8z
		 M30.5,2.2C14.9,2.2,2.2,14.9,2.2,30.5s12.6,28.3,28.3,28.3s28.3-12.7,28.3-28.3S46.1,2.2,30.5,2.2z"/>
</g>
<g>
	<path fill="#D24A43" d="M30.5,54.5c-13.2,0-23.9-10.7-23.9-23.9S17.3,6.7,30.5,6.7s23.9,10.7,23.9,23.9S43.7,54.5,30.5,54.5z
		 M30.5,8.6c-12.1,0-21.9,9.8-21.9,21.9s9.8,21.9,21.9,21.9s21.9-9.8,21.9-21.9S42.6,8.6,30.5,8.6z"/>
</g>
<g>
	<path fill="#D24A43" d="M22.8,16.5c-3.4,0-6.1,2.7-6.1,6.1c0,3.4,2.7,6.1,6.1,6.1c3.4,0,6.1-2.7,6.1-6.1
		C29,19.2,26.2,16.5,22.8,16.5z M26.2,20.3c0.6,0,1,0.5,1,1s-0.5,1-1,1s-1-0.5-1-1S25.6,20.3,26.2,20.3z M19.2,24.3
		c-0.6,0-1-0.5-1-1s0.5-1,1-1s1,0.5,1,1S19.7,24.3,19.2,24.3z M20.2,19.6c0-0.9,0.8-1.7,1.7-1.7s1.7,0.8,1.7,1.7s-0.8,1.7-1.7,1.7
		S20.2,20.6,20.2,19.6z M23.2,27.3c-0.6,0-1-0.5-1-1s0.5-1,1-1s1,0.5,1,1S23.7,27.3,23.2,27.3z M23.2,24.3c-0.6,0-1-0.5-1-1
		s0.5-1,1-1s1,0.5,1,1S23.7,24.3,23.2,24.3z M26.2,25.3c-0.6,0-1-0.5-1-1s0.5-1,1-1s1,0.5,1,1S26.7,25.3,26.2,25.3z"/>
</g>
<g>
	<path fill="#D24A43" d="M36.8,30.8c-3.4,0-6.1,2.7-6.1,6.1s2.7,6.1,6.1,6.1s6.1-2.7,6.1-6.1C43,33.5,40.2,30.8,36.8,30.8z
		 M40.2,34.6c0.6,0,1,0.5,1,1s-0.5,1-1,1s-1-0.5-1-1S39.6,34.6,40.2,34.6z M33.2,38.6c-0.6,0-1-0.5-1-1s0.5-1,1-1s1,0.5,1,1
		S33.7,38.6,33.2,38.6z M34.2,33.9c0-0.9,0.8-1.7,1.7-1.7s1.7,0.8,1.7,1.7s-0.8,1.7-1.7,1.7S34.2,34.8,34.2,33.9z M37.2,41.6
		c-0.6,0-1-0.5-1-1s0.5-1,1-1s1,0.5,1,1S37.7,41.6,37.2,41.6z M37.2,38.6c-0.6,0-1-0.5-1-1s0.5-1,1-1s1,0.5,1,1S37.7,38.6,37.2,38.6
		z M40.2,39.6c-0.6,0-1-0.5-1-1s0.5-1,1-1s1,0.5,1,1S40.7,39.6,40.2,39.6z"/>
</g>
<g>
	<path fill="#D24A43" d="M18.7,40.6c-0.2,0-0.4-0.1-0.6-0.2c-0.5-0.3-0.6-0.9-0.2-1.4c0.4-0.5,3.5-4.9,5-5.9
		c1.4-0.9,2.9-1.9,4.4-2.8c3.1-1.9,6.2-3.9,8.1-5.7c1.2-1.1,3.9-5.3,4.9-6.8c0.3-0.5,0.9-0.6,1.4-0.3s0.6,0.9,0.3,1.4
		c-0.4,0.6-3.6,5.7-5.2,7.2c-2,1.9-5.3,3.9-8.4,5.9c-1.5,0.9-3,1.9-4.4,2.8c-0.9,0.6-3.2,3.6-4.5,5.4C19.3,40.5,19,40.6,18.7,40.6z"
		/>
</g>
</svg>
