<?xml version="1.0" encoding="utf-8"?>
<!-- Generator: Adobe Illustrator 20.1.0, SVG Export Plug-In . SVG Version: 6.00 Build 0)  -->
<svg version="1.1" id="Слой_1" xmlns="http://www.w3.org/2000/svg" xmlns:xlink="http://www.w3.org/1999/xlink" x="0px" y="0px"
	 width="33px" height="25px" viewBox="0 0 33 25" enable-background="new 0 0 33 25" xml:space="preserve">
<g>
	<path fill="#161516" d="M33,11.3c-0.7,5.8-4.4,11-9.8,13.5c0,0-0.1,0-0.2,0s-0.3-0.1-0.3-0.2c-0.1-0.2,0-0.4,0.2-0.5
		c1.4-0.8,2.2-1.8,2.2-2.8c0-2.3-3.9-4.3-8.6-4.3s-8.6,2-8.6,4.3c0,1,0.8,2,2.2,2.8c0.2,0.1,0.2,0.3,0.2,0.5
		c-0.1,0.2-0.3,0.3-0.5,0.2C4.5,22.3,0.7,17.1,0,11.3c0-0.2,0.1-0.4,0.3-0.4c0.1,0,6.7-2,16.3-2c5.6,0,11,0.7,16.2,1.9
		C32.9,10.9,33,11.1,33,11.3z M10,4.1V1.6c0-0.8,0.7-1.5,1.5-1.5S13,0.8,13,1.6v2.5c0,0.8-0.7,1.5-1.5,1.5S10,4.9,10,4.1z M19,4.1
		V1.6c0-0.8,0.7-1.5,1.5-1.5S22,0.8,22,1.6v2.5c0,0.8-0.7,1.5-1.5,1.5S19,4.9,19,4.1z"/>
</g>
</svg>
