<?xml version="1.0" encoding="utf-8"?>
<!-- Generator: Adobe Illustrator 20.1.0, SVG Export Plug-In . SVG Version: 6.00 Build 0)  -->
<svg version="1.1" id="Слой_1" xmlns="http://www.w3.org/2000/svg" xmlns:xlink="http://www.w3.org/1999/xlink" x="0px" y="0px"
	 width="119px" height="92px" viewBox="0 0 119 92" enable-background="new 0 0 119 92" xml:space="preserve">
<g>
	<g>
		<g>
			<path fill="#0E0F0F" d="M97.9,71.3l15.5,14.2l1.3-1.5L99.3,69.8L97.9,71.3z M105,58.9l-0.4,2l13.6,2.6l0.4-2L105,58.9z
				 M89.8,78.2l3.5,13.4l1.9-0.5l-3.5-13.4L89.8,78.2z M0.4,11.8l18.9,9.1l0.9-1.8L1.3,10L0.4,11.8z M17.4,1.5l7.8,11.6l1.7-1.1
				L19.1,0.4L17.4,1.5z M3.3,29.7l0.1,2l13.9-1l-0.1-2L3.3,29.7z"/>
		</g>
	</g>
	<path fill="#0F1011" d="M83.7,21.7c-6.3-6.4-18-4.8-26.1,3.4c-6.3,6.4-8.7,15.2-6.2,21.8c-0.1,0.1-0.2,0.1-0.3,0.2L39.3,59.1l0,0
		c-2.2-1.5-5.2-1.3-7.1,0.7c-1.1,1.1-1.6,2.5-1.6,4s0.6,2.9,1.6,4c1,1,2.3,1.6,3.6,1.6c0.1,1.4,0.6,2.7,1.6,3.7
		c1.1,1.1,2.5,1.7,4,1.7s2.9-0.6,4-1.7c1.9-2,2.1-5,0.7-7.2l0,0l11.7-11.9c2,1,4.2,1.5,6.6,1.5c5.4,0,11.3-2.6,16-7.3
		C88.4,40,89.9,28,83.7,21.7z M78.7,46.4c-6.4,6.5-15.2,8.5-21,4.8c-0.6-0.4-1.3-0.2-1.6,0.4c-0.2,0.3-0.2,0.6-0.2,0.8L44.4,64.2
		l-0.1,0.1c-0.5-0.1-1,0-1.3,0.5c-0.4,0.5-0.3,1.3,0.3,1.7c0.1,0.1,0.3,0.2,0.4,0.3c0.6,0.6,0.9,1.4,0.9,2.3s-0.3,1.7-1,2.3
		c-1.3,1.3-3.3,1.3-4.5,0c-0.8-0.8-1.1-1.9-0.9-3c0.1-0.4,0-0.8-0.3-1.1c-0.3-0.3-0.7-0.4-1.1-0.3c-1.1,0.2-2.2-0.1-3-0.9
		c-0.6-0.6-0.9-1.4-0.9-2.3s0.3-1.7,0.9-2.3c1.3-1.3,3.3-1.3,4.6,0c0.3,0.3,0.5,0.6,0.7,1c0.3,0.6,1,0.9,1.6,0.6s0.9-1,0.6-1.6
		c-0.1-0.3-0.2-0.5-0.4-0.7c0,0,0.1,0,0.1-0.1L52.4,49l0,0c0.3,0.6,1.1,0.7,1.6,0.4c0.6-0.4,0.7-1.1,0.4-1.7
		c-3.5-5.7-1.4-14.5,4.9-21c7.2-7.3,17.4-8.8,22.7-3.4C87.3,28.8,85.8,39.2,78.7,46.4z"/>
</g>
</svg>
