<?xml version="1.0" encoding="utf-8"?>
<!-- Generator: Adobe Illustrator 20.1.0, SVG Export Plug-In . SVG Version: 6.00 Build 0)  -->
<svg version="1.1" id="Слой_1" xmlns="http://www.w3.org/2000/svg" xmlns:xlink="http://www.w3.org/1999/xlink" x="0px" y="0px"
	 width="57px" height="57px" viewBox="0 0 57 57" enable-background="new 0 0 57 57" xml:space="preserve">
<g>
	<path fill="#D24A43" d="M53.1,4c-6.3-6.4-18-4.8-26.1,3.4c-6.3,6.4-8.7,15.2-6.2,21.8c-0.1,0.1-0.2,0.1-0.3,0.2L8.7,41.3l0,0
		C6.5,39.8,3.5,40,1.6,42C0.5,43.1,0,44.5,0,46s0.6,2.9,1.6,4c1,1,2.3,1.6,3.6,1.6c0.1,1.4,0.6,2.7,1.6,3.7c1.1,1.1,2.5,1.7,4,1.7
		s2.9-0.6,4-1.7c1.9-2,2.1-5,0.7-7.2l0,0l11.7-11.9c2,1,4.2,1.5,6.6,1.5c5.4,0,11.3-2.6,16-7.3C57.8,22.2,59.3,10.3,53.1,4z
		 M48.1,28.7c-6.4,6.5-15.2,8.5-21,4.8c-0.6-0.4-1.3-0.2-1.6,0.4c-0.2,0.3-0.2,0.6-0.2,0.8L13.8,46.4l-0.1,0.1c-0.5-0.1-1,0-1.3,0.5
		c-0.4,0.5-0.3,1.3,0.3,1.7c0.1,0.1,0.3,0.2,0.4,0.3c0.6,0.6,0.9,1.4,0.9,2.3s-0.3,1.7-1,2.3c-1.3,1.3-3.3,1.3-4.5,0
		c-0.8-0.8-1.1-1.9-0.9-3c0.1-0.4,0-0.8-0.3-1.1c-0.3-0.3-0.7-0.4-1.1-0.3c-1.1,0.2-2.2-0.1-3-0.9c-0.6-0.6-0.9-1.4-0.9-2.3
		s0.3-1.7,0.9-2.3c1.3-1.3,3.3-1.3,4.6,0c0.3,0.3,0.5,0.6,0.7,1c0.3,0.6,1,0.9,1.6,0.6s0.9-1,0.6-1.6c-0.1-0.3-0.2-0.5-0.4-0.7
		c0,0,0.1,0,0.1-0.1l11.4-11.6l0,0c0.3,0.6,1.1,0.7,1.6,0.4c0.6-0.4,0.7-1.1,0.4-1.7c-3.5-5.7-1.4-14.5,4.9-21
		c7.2-7.3,17.4-8.8,22.7-3.4C56.7,11.1,55.2,21.4,48.1,28.7z"/>
</g>
</svg>
