<?xml version="1.0" encoding="utf-8"?>
<!-- Generator: Adobe Illustrator 20.1.0, SVG Export Plug-In . SVG Version: 6.00 Build 0)  -->
<svg version="1.1" id="Слой_1" xmlns="http://www.w3.org/2000/svg" xmlns:xlink="http://www.w3.org/1999/xlink" x="0px" y="0px"
	 width="58px" height="57px" viewBox="0 0 58 57" enable-background="new 0 0 58 57" xml:space="preserve">
<path fill="#434344" d="M29,5.1c7.7,0,8.6,0,11.6,0.2c2.8,0.1,4.3,0.6,5.3,1c1.3,0.5,2.3,1.1,3.3,2.1s1.6,1.9,2.1,3.3
	c0.4,1,0.9,2.5,1,5.3c0.1,3,0.2,3.9,0.2,11.5s0,8.5-0.2,11.5c-0.1,2.8-0.6,4.3-1,5.3c-0.5,1.3-1.1,2.3-2.1,3.3s-2,1.6-3.3,2.1
	c-1,0.4-2.5,0.9-5.3,1c-3,0.1-3.9,0.2-11.6,0.2s-8.6,0-11.6-0.2c-2.8-0.1-4.3-0.6-5.3-1c-1.3-0.5-2.3-1.1-3.3-2.1s-1.6-1.9-2.1-3.3
	c-0.4-1-0.9-2.5-1-5.3c-0.1-3-0.2-3.9-0.2-11.5S5.5,20,5.7,17c0.1-2.8,0.6-4.3,1-5.3c0.5-1.3,1.1-2.3,2.1-3.3s2-1.6,3.3-2.1
	c1-0.4,2.5-0.9,5.3-1C20.4,5.1,21.3,5.1,29,5.1 M29,0c-7.8,0-8.8,0-11.8,0.2c-3.1,0.1-5.1,0.6-7,1.3C8.3,2.2,6.7,3.2,5.1,4.8
	C3.5,6.4,2.5,8,1.8,9.8c-0.7,1.8-1.2,3.9-1.3,6.9c-0.1,3-0.2,4-0.2,11.8c0,7.7,0,8.7,0.2,11.8c0.1,3,0.6,5.1,1.3,6.9
	c0.7,1.9,1.7,3.5,3.3,5c1.6,1.6,3.2,2.6,5.1,3.3c1.8,0.7,3.9,1.2,7,1.3c3.1,0.1,4,0.2,11.8,0.2s8.8,0,11.8-0.2
	c3.1-0.1,5.1-0.6,7-1.3c1.9-0.7,3.5-1.7,5.1-3.3c1.6-1.6,2.6-3.2,3.3-5c0.7-1.8,1.2-3.9,1.3-6.9c0.1-3,0.2-4,0.2-11.8
	c0-7.7,0-8.7-0.2-11.8c-0.1-3-0.6-5.1-1.3-6.9c-0.7-1.9-1.7-3.5-3.3-5c-1.6-1.6-3.2-2.6-5.1-3.3c-1.8-0.7-3.9-1.2-7-1.3
	C37.7,0,36.8,0,29,0L29,0z"/>
<path fill="#434344" d="M28,39.1h2.1c0,0,0.6-0.1,0.9-0.4c0.3-0.3,0.3-0.9,0.3-0.9s0-2.9,1.3-3.3c1.3-0.4,2.9,2.7,4.6,4
	c1.3,0.9,2.3,0.7,2.3,0.7h4.6c0,0,2.4-0.2,1.3-2.1c-0.1-0.2-0.7-1.4-3.4-4.1c-2.9-2.8-2.5-2.3,1-7.1c2.1-2.9,3-4.7,2.7-5.4
	s-1.8-0.6-1.8-0.6h-5.2c0,0-0.4,0-0.7,0.1c-0.3,0.2-0.5,0.6-0.5,0.6s-0.8,2.3-1.9,4.2c-2.3,4-3.3,4.2-3.6,4
	c-0.9-0.6-0.7-2.3-0.7-3.6c0-3.9,0.6-5.5-1.1-5.9c-0.6-0.1-1-0.2-2.4-0.2c-1.9,0-3.4,0-4.3,0.5c-0.6,0.3-1.1,1-0.8,1
	s1.1,0.2,1.5,0.8c0.5,0.7,0.5,2.4,0.5,2.4S25,28.4,24,29c-0.7,0.4-1.7-0.4-3.7-4.1c-1.1-1.9-1.9-4-1.9-4s-0.2-0.4-0.4-0.6
	C17.7,20,17.2,20,17.2,20h-5c0,0-0.7,0-1,0.4c-0.2,0.3,0,0.9,0,0.9s3.9,9.3,8.3,14C23.4,39.4,28,39.1,28,39.1z"/>
</svg>
