<?xml version="1.0" encoding="utf-8"?>
<!-- Generator: Adobe Illustrator 19.0.0, SVG Export Plug-In . SVG Version: 6.00 Build 0)  -->
<svg version="1.1" id="Слой_1" xmlns="http://www.w3.org/2000/svg" xmlns:xlink="http://www.w3.org/1999/xlink" x="0px" y="0px"
	 width="1258px" height="2042px" viewBox="331 -601.1 1258 2042" enable-background="new 331 -601.1 1258 2042"
	 xml:space="preserve">
<g>
	<path fill="none" stroke="#FDFEFF" stroke-miterlimit="10" d="M339.2-225.7c-0.1-1-0.1-2.1,0-3.1"/>
	<path fill="none" stroke="#FDFEFF" stroke-miterlimit="10" stroke-dasharray="4.9938,4.9938" d="M339-234.8
		c-0.2-79.9,37.2-159.3,99.1-209.7c13.8-11.2,30.1-21.5,48-21.1s35.9,16.5,32.6,33.9c-4,20.3-35.2,25.3-49.2,10.1
		c-14-15.2-11.3-40.6,1.2-57.1s32.2-25.7,51.7-32.7c134.4-47.5,283.5-8.4,415.7,44.8c25.6,10.3,51.7,21.6,71.5,40.7
		c19.8,19.3,32.2,48.4,24.4,74.9c-7.9,26.5-40.9,44.8-65,31.4c-28.1-15.5-26.4-56.8-14.9-86.7c34.2-89.1,119.2-152.7,211.7-176
		s191.2-9.8,281.3,21.5c60.3,21,120.5,52.2,155.8,105.4c34.2,51.6,36.9,127.7-6.1,171.2"/>
	<path fill="none" stroke="#FDFEFF" stroke-miterlimit="10" d="M1594.7-282.1c-0.7,0.7-1.5,1.4-2.2,2.1"/>
</g>
<g>
	<path fill="none" stroke="#FDFEFF" stroke-miterlimit="10" d="M-907.6,316.3c-0.1-1-0.1-2.1,0-3.1"/>
	<path fill="none" stroke="#FDFEFF" stroke-miterlimit="10" stroke-dasharray="4.9938,4.9938" d="M-907.8,307.2
		c-0.2-79.9,37.2-159.2,99.1-209.7c13.8-11.2,30.1-21.5,48-21.1s35.9,16.5,32.6,33.9c-4,20.3-35.2,25.3-49.2,10.1
		s-11.3-40.6,1.2-57.1s32.2-25.7,51.7-32.7c134.4-47.5,283.5-8.4,415.7,44.8c25.6,10.3,51.7,21.6,71.5,40.7
		c19.8,19.3,32.2,48.4,24.4,74.9c-7.9,26.5-40.9,44.8-65,31.4c-28.1-15.5-26.4-56.8-14.9-86.7C-258.5,46.6-173.5-17-81-40.3
		s191.1-9.8,281.3,21.5c60.3,21,120.5,52.2,155.8,105.4c34.2,51.5,36.9,127.7-6.1,171.2"/>
	<path fill="none" stroke="#FDFEFF" stroke-miterlimit="10" d="M347.9,259.9c-0.7,0.7-1.5,1.4-2.2,2.1"/>
</g>
<path fill="#FFFFFF" d="M361.5,486.4l-26.9,65l45.9-54.4L361.5,486.4z"/>
<path fill="#E7E7E7" d="M334.6,551.4l70.8-34l-17.1-16.9L334.6,551.4z"/>
<path fill="#E7E7E7" d="M388.3,500.5l-7.8,5.4V497l-45.9,54.4L388.3,500.5z"/>
<path fill="#D3D4D5" d="M380.5,505.9l-45.9,45.5l45.9-54.4V505.9z"/>
<path fill="#FFFFFF" stroke="#FFFFFF" stroke-width="0.3535" stroke-miterlimit="22.9256" d="M365,569.7l5.7,10l11.4,2.4l-7.8,8.5
	l1.3,11.5l-10.6-4.7l-10.6,4.7l1.3-11.5l-7.8-8.5l11.4-2.4C359.3,579.7,365,569.7,365,569.7z"/>
<path fill="#FFFFFF" d="M368.1,583.9v-1c0-0.2,0-0.3-0.3-0.3h-6c-0.2,0-0.3,0-0.3,0.3v1.7c0,0.3,0.1,0.3,0.3,0.3h3.2l-2.9,6.7
	c-0.1,0.3-0.1,0.4,0.2,0.4l2.1,0.4c0.2,0,0.3,0,0.4-0.2C364.8,592.2,368.1,583.9,368.1,583.9z"/>
<path fill="#DA2529" d="M334.7,626.4v43c0,3.7,3.2,6.9,6.9,6.9h42.8c3.7,0,6.9-3.2,6.9-6.9v-43c0-3.7-3.2-6.9-6.9-6.9h-43
	C337.8,619.6,334.7,622.8,334.7,626.4z"/>
<path fill="#FFFFFF" d="M360.3,637.4c1.7,0,3.4-0.2,4.9,0.6c1.1,0.4,1.1,0.7,1.1,2.2c0,1.7-0.4,6.5,0,7.5c1.3,2.8,4.1-2.8,4.7-3.7
	c0.6-0.9,0.9-1.9,1.5-2.8c1.5-3.2-0.4-2.4,8.8-2.4c3.6,0-2.8,7.7-3.6,8.4c-3,4.1-2.1,3.6,1.7,7.1c0.9,0.9,3,3.4,3,4.5
	c0,0.7-0.4,0.9-1.1,0.9h-6.8c-1.1,0-2.2-0.7-2.8-1.5c-1.3-1.3-4.7-6.5-5.6-1.1c-0.6,2.8,0.9,2.6-4.3,2.6c-3,0-6.2-1.5-7.9-3
	c-0.4-0.4-0.4-0.4-0.7-0.6c-0.6-0.4-0.7-0.7-1.1-1.3c-0.7-0.7-1.5-1.9-2.2-2.8l-2.8-4.5c-0.4-0.6-0.6-0.9-0.9-1.5
	c-0.4-1.1-2.8-5.6-2.8-6.7c0-0.4,0.6-0.7,0.9-0.7h5.8c0.9,0,1.1,0.7,1.5,1.3c0.4,0.7,0.7,1.5,0.9,2.1c0.4,0.7,0.6,1.3,0.9,1.9
	c0.4,0.9,2.8,5.1,4.1,4.5c1.1-0.4,1.7-5.8,0.6-7.9c-0.7-1.5-1.3-1.3-2.1-1.7c0.4-0.6,0.9-0.7,1.7-1.1
	C358.6,637.6,359.5,637.4,360.3,637.4z"/>
<path fill="#FDFEFF" d="M342,684.5h42v52.7h-42V684.5z"/>
<path fill="#DA2529" d="M356.4,705c0.2-0.2-0.4-0.2,0.4-0.2h4.7v-4.7c0-0.6-0.2-4.3,0.2-4.5c0-2.4,1.7-4.9,2.8-5.8
	c0.8-0.8,1.5-1.1,2.6-1.7c0.8-0.4,2.4-0.9,3.2-0.8h0.6c1.9,0,8.4-0.2,9.2,0v9.2h-6c-0.9,0.2-1.9,0.9-1.9,1.9c-0.2,2.1,0,4.1,0,6.2
	h7.9v0.4l-1.1,8.8h-6.9v23.3c4.5,0,9,0.2,13.5,0c2.1,0,3.8-1.1,4.5-2.3c1.3-1.9,1.3-3,1.3-5.6v-39.6c0-2.6,0.2-4.1-0.9-6.2
	c-0.8-1.3-2.1-2.4-4.1-2.8c-1.1-0.2-38.1,0-40.5,0c-1.8,0-5.4-0.2-6.7,0.2c-1.9,0.6-3,1.7-3.8,3c-0.9,1.9-0.7,4.1-0.7,6.4v39.6
	c0,2.6,0.4,3.9,1.7,5.4c1.1,1.3,2.6,1.9,4.9,1.9h20.3V714h-5.1C356.5,714,356.4,705,356.4,705z"/>
<path fill="#DA2529" d="M334.7,748.4v43c0,3.7,3.2,6.9,6.9,6.9h42.8c3.7,0,6.9-3.2,6.9-6.9v-43c0-3.7-3.2-6.9-6.9-6.9h-43
	C337.8,741.6,334.7,744.8,334.7,748.4z"/>
<path fill="#FFFFFF" d="M348.1,764.1l-0.6,1.9c0.6,0.2,0.2,0,0.6,0.4c0.7,0,2.6,0.7,3.7,0.7c1.5,0.2,2.6,0.4,4.1,0.2
	c-0.2,0.7-0.9,1.5-1.1,2.4c-0.4,0.9-0.6,1.9-0.7,2.8l-0.2,0.9c-1.3-0.4-1.7-1.1-3.6-0.9c-2.2,0.2-2.2,1.1-3,1.3
	c-3.7,4.9,2.1,15.6,10.4,11.4c1.3-0.6,2.6-2.1,3.4-3c1.7-2.4,2.4-6.5,0.6-8.6c-2.1-2.1-4.7-0.7-6.4-0.2c0.2-2.1,0.9-3.7,1.7-5.2
	c1.1-2.1,0.7-0.6,4.7-2.2c3.4-1.5,5.1-3.6,5.8-7.7c2.1,3.2,3.7,11,4.1,15.3c-1.7-0.7-2.6-1.3-4.9-0.4c-1.3,0.6-2.2,1.7-2.6,3.6
	c-0.4,3.4,1.1,6.4,3.7,8.2c3.4,2.1,6.4,0.7,8.8-0.9c0.7-0.6,1.9-2.2,2.4-3.6c0.9-2.4,0.4-3,0.4-5.2c-1.1-1.3-1.7-3.6-6.9-1.5
	c-0.9-5.6-0.9-7.7-3.4-13.3c-0.6-1.1-1.3-2.4-1.7-3.6c0.7-1.1,1.5-1.5,1.5-3.4h-1.3c-0.2,1.9-1.3,4.5-3.6,4.5
	c-3-0.2-8.2-2.2-12.5,1.9C348.7,762.4,349.2,763,348.1,764.1z"/>
<path fill="#DA2529" d="M334.7,809.4v43c0,3.7,3.2,6.9,6.9,6.9h42.8c3.7,0,6.9-3.2,6.9-6.9v-43c0-3.7-3.2-6.9-6.9-6.9h-43
	C337.8,802.6,334.7,805.8,334.7,809.4z"/>
<path fill="#FFFFFF" d="M350,813.5h26c2.4,0,4.5,2.1,4.5,4.5v26c0,2.4-2.1,4.5-4.5,4.5h-26c-2.4,0-4.5-2.1-4.5-4.5v-26
	C345.5,815.4,347.4,813.5,350,813.5z M371,817.2c-0.9,0-1.5,0.7-1.5,1.5v3.7c0,0.9,0.7,1.5,1.5,1.5h3.9c0.9,0,1.5-0.7,1.5-1.5v-3.7
	c0-0.9-0.7-1.5-1.5-1.5H371z M376.4,828.3h-3c0.4,0.9,0.4,1.9,0.4,3c0,5.8-4.9,10.5-10.9,10.5s-10.9-4.7-10.9-10.5
	c0-1.1,0.2-2.1,0.4-3h-3.2v14.8c0,0.7,0.6,1.3,1.3,1.3h24.3c0.7,0,1.3-0.6,1.3-1.3v-14.8C376.1,828.3,376.4,828.3,376.4,828.3z
	 M362.9,824c-3.9,0-6.9,3-6.9,6.7s3.2,6.7,6.9,6.7c3.7,0,6.9-3,6.9-6.7C370,827.2,366.8,824,362.9,824z"/>
<path fill="#FFFFFF" stroke="#FFFFFF" stroke-width="0.3535" stroke-miterlimit="22.9256" d="M370.3,882.7h2.8v0.5h-2.8V882.7z
	 M373.6,882.7h2.8v0.5h-2.8V882.7z M376.8,882.7h2.8v0.5h-2.8V882.7z M380.1,882.7h2.8v0.5h-2.8V882.7z"/>
<path fill="#FFFFFF" d="M376,891.1c2.6-0.3,2.1,2.1,0.9,2.4C375.5,894,374.5,892.5,376,891.1z M373.9,865.7c0.6-0.6,4.7-0.6,5.4,0
	C378.4,866.2,374.7,866.3,373.9,865.7z M383.8,867c0.5,0.3,0.3-0.5,0.5,0.7c0,3.3,0.4,20.9-0.2,22.6c-0.9,0.1-14.3,0.5-15.1-0.2
	v-9.8c-1.6,3.3-1.3,2.6-1.3,6.4c0,2-0.3,6.1,0.3,7.8c1.4,0.5,15.7,0.6,16.9,0c1.1-1,0.6-5.4,0.6-7.1v-15.7c0-1.8,0.5-6-0.5-7.4
	c-1.4-0.5-15.6-0.4-17,0.1c-0.4,1.2-0.4,9.2-0.3,10.3c0.1,0.4-0.2,9.1,0,9.3c0.2,0.2,1.3-0.4,1.3-2.2l-0.1-4.8l0.1-10
	C369,867,383.8,867,383.8,867z M356.5,882.6h4.4v2.2l4.3-4.4l-4.3-4.4v2.2h-4.4C356.5,878.2,356.5,882.6,356.5,882.6z"/>
<path fill="#FFFFFF" stroke="#FFFFFF" stroke-width="0.3523" stroke-miterlimit="22.9256" d="M336.5,890.5v-19.9l2.3-2.7h13.7v22.6
	c-0.3-0.2-1.4-1.5-1.6-1.5c-0.4,0-0.3,0-0.7,0.4l-1.5,1.5c-0.4-0.3-1.8-1.9-2-1.9c-0.4,0-0.3,0-0.7,0.4l-0.5,0.5
	c-0.3,0.3-0.7,0.8-1,1c-0.3-0.2-0.7-0.7-1-1c-0.2-0.2-0.9-0.9-1-0.9h-0.2c-0.2,0-1.6,1.7-2,1.9c-0.1-0.1-1.8-1.9-2-1.9h-0.2
	C337.9,889,336.8,890.3,336.5,890.5z M353.4,867.1v24.5c0,0.2-0.1,0.4-0.3,0.4h-0.2c-0.4,0-0.3,0-0.7-0.5l-0.7-0.7
	c-0.2-0.2-0.3-0.5-0.7-0.7c-0.3,0.2-0.8,0.7-1,1c-0.5,0.5-0.8,0.9-1.2,0.9c-0.2,0-1.6-1.6-2-1.9c-0.3,0.2-0.8,0.7-1,1
	c-0.5,0.5-0.8,0.8-1,0.9h-0.2c-0.1,0-0.3-0.2-0.6-0.5l-0.5-0.5c-0.3-0.3-0.7-0.8-1-1l-1.5,1.5c-0.3,0.4-0.2,0.4-0.7,0.4
	c-0.2,0-1.6-1.6-2-1.9c-0.4,0.2-1.7,1.9-1.9,1.9H336c-0.2,0-0.3-0.1-0.3-0.4v-21.2l2.9-3.2H353.4z"/>
<path fill="#FFFFFF" stroke="#FFFFFF" stroke-width="0.3523" stroke-miterlimit="22.9256" d="M338.8,867.9v2.7h-2.3v0.8h3.2v-3.5
	C339.7,867.9,338.8,867.9,338.8,867.9z"/>
<path fill="#FFFFFF" stroke="#FFFFFF" stroke-width="0.4799" stroke-miterlimit="22.9256" d="M343.4,875.3v0.7h2.8v0.6h-2.8v1.7
	h-0.9v-1.7H342V876h0.5v-0.7H342v-0.8h0.5v-3h2.2c0.6,0,1.1,0.1,1.4,0.2c0.3,0.1,0.6,0.3,0.8,0.7c0.2,0.3,0.3,0.7,0.3,1
	c0,0.4-0.1,0.7-0.2,1s-0.3,0.5-0.6,0.6c-0.2,0.1-0.5,0.3-0.8,0.3c-0.3,0.1-0.6,0.1-0.9,0.1h-1.3V875.3z M344.6,874.5h0.6
	c0.2,0,0.4-0.1,0.5-0.2c0.1-0.1,0.3-0.2,0.3-0.4c0.1-0.1,0.1-0.3,0.1-0.6c0-0.2,0-0.4-0.1-0.5c-0.1-0.1-0.2-0.3-0.3-0.3
	c-0.1-0.1-0.3-0.2-0.5-0.2c-0.2,0-0.4-0.1-0.6-0.1h-1.2v2.3H344.6z"/>
<path fill="#FFFFFF" stroke="#FFFFFF" stroke-width="0.3535" stroke-miterlimit="22.9256" d="M338.4,883.4h2.6v0.4h-2.6V883.4z
	 M341.5,883.4h2.7v0.4h-2.7V883.4z M344.5,883.4h2.7v0.4h-2.7V883.4z M347.6,883.4h2.6v0.4h-2.6V883.4z"/>
<path fill="#FCEE23" stroke="#231F20" stroke-width="2.667" stroke-miterlimit="22.926" d="M356,901.6l6.1,10.7l12.1,2.5l-8.3,9.1
	l1.3,12.3l-11.2-5.1l-11.2,5.1l1.3-12.3l-8.3-9.1l12.1-2.5L356,901.6z"/>
<path fill="#231F20" d="M359.7,922.1c0-2-1.3-3.3-3.3-3.3c-0.4,0-0.8,0-1.2,0.3l0.2-1.3h3.3c0.3,0,0.3,0,0.3-0.3v-1.8
	c0-0.3-0.1-0.3-0.3-0.3h-5.3c-0.3,0-0.3,0-0.3,0.3l-0.5,5.1c0,0.2,0,0.3,0.2,0.4l1.5,0.5c0.2,0,0.2,0,0.3-0.1
	c0.4-0.4,0.7-0.7,1.4-0.7s1.2,0.4,1.2,1.2c0,1-0.7,1.6-1.8,1.6c-1.1,0-2-0.4-2.3-0.4c-0.1,0-0.3-0.1-0.4,0.1l-0.4,1.7
	c0,0.2,0,0.2,0.2,0.3c0.2,0.1,1.3,0.6,2.8,0.6C357.9,926,359.7,924.5,359.7,922.1z"/>
<path fill="#FFF200" stroke="#231F20" stroke-width="1.625" stroke-miterlimit="22.926" d="M355,948.6l4.9,8.6l9.8,2l-6.8,7.3
	l1.2,9.9l-9.1-4.1l-9.1,4.1l1.2-9.9l-6.8-7.3l9.8-2L355,948.6z"/>
<path fill="#231F20" d="M359.9,965.5c0-1.4-0.8-2.3-2.2-2.3c-1.4,0-2.2,1-2.2,2.3s0.8,2.3,2.2,2.3
	C359.2,967.9,359.9,966.7,359.9,965.5z M357.1,959.7c0.1-0.2,0.1-0.3-0.2-0.3h-1.1c-0.1,0-0.2,0.1-0.3,0.2l-3.5,8.2
	c-0.1,0.2,0,0.3,0.2,0.3h1.1c0.1,0,0.2-0.1,0.3-0.2L357.1,959.7z M353.6,961.9c0-1.4-0.8-2.3-2.2-2.3s-2.2,1-2.2,2.3
	s0.8,2.3,2.2,2.3C352.9,964.2,353.6,963.1,353.6,961.9z M358.2,965.5c0,0.8-0.3,1-0.5,1c-0.2,0-0.5-0.1-0.5-1c0-0.8,0.3-1,0.5-1
	C358,964.5,358.2,964.7,358.2,965.5z M351.9,961.9c0,0.8-0.3,1-0.5,1c-0.2,0-0.5-0.1-0.5-1c0-0.8,0.3-1,0.5-1
	C351.7,960.9,351.9,961,351.9,961.9z"/>
<path fill="#FCEE23" stroke="#231F20" stroke-width="2.4" stroke-miterlimit="22.926" d="M354.5,989.2l5.7,10l11.4,2.4l-7.8,8.5
	l1.3,11.5l-10.6-4.7l-10.6,4.7l1.3-11.5l-7.8-8.5l11.4-2.4L354.5,989.2z"/>
<path fill="#231F20" d="M357.6,1003.4v-1c0-0.2,0-0.3-0.3-0.3h-6c-0.2,0-0.3,0-0.3,0.3v1.7c0,0.3,0.1,0.3,0.3,0.3h3.2l-2.9,6.7
	c-0.1,0.3-0.1,0.4,0.2,0.4l2.1,0.4c0.2,0,0.3,0,0.4-0.2C354.3,1011.7,357.6,1003.4,357.6,1003.4z"/>
<path fill="#FCEE23" stroke="#231F20" stroke-width="2.4" stroke-miterlimit="22.926" d="M354.5,1030.2l5.7,10l11.4,2.4l-7.8,8.5
	l1.3,11.5l-10.6-4.7l-10.6,4.7l1.3-11.5l-7.8-8.5l11.4-2.4L354.5,1030.2z"/>
<path fill="#231F20" d="M353.8,1046.2c0-1.6-1.3-2.7-3.1-2.7c-1.4,0-2.5,0.5-3.1,1.5c-0.4,0.8-0.5,1-0.5,1.2c0,0.1,0,0.2,0.2,0.2
	l1.5,0.6c0.2,0.1,0.3-0.1,0.4-0.2c0.2-0.5,0.5-1.2,1.3-1.2c0.5,0,0.8,0.2,0.8,0.7c0,0.6-0.8,1-1.3,1.3c-1.3,0.8-2.2,1.4-2.6,2.9
	c-0.1,0.3-0.1,0.7-0.1,1.5c0,0.2,0,0.2,0.2,0.2h6c0.3,0,0.3,0,0.3-0.3v-1.7c0-0.3,0-0.3-0.3-0.3h-3.3c0.1-0.3,0.4-0.3,1.2-0.8
	c0.7-0.4,1.4-0.7,1.8-1.2C353.4,1047.6,353.8,1047.1,353.8,1046.2z M362.5,1048.1c0-1.9-0.7-4.5-3.7-4.5c-2.5,0-3.9,1.9-3.9,4.6
	c0,2.7,1.4,4.5,3.8,4.5C361.8,1052.7,362.5,1050.2,362.5,1048.1z M359.9,1048.3c0,1.8-0.5,2.4-1.2,2.4c-0.6,0-1.2-0.7-1.2-2.5
	c0-1.9,0.6-2.6,1.2-2.6C359.4,1045.6,359.9,1046.1,359.9,1048.3z"/>
<path fill="#FCEE23" stroke="#231F20" stroke-width="2.4" stroke-miterlimit="22.926" d="M354.5,1071.2l5.7,10l11.4,2.4l-7.8,8.5
	l1.3,11.5l-10.6-4.7l-10.6,4.7l1.3-11.5l-7.8-8.5l11.4-2.4L354.5,1071.2z"/>
<path fill="#231F20" d="M353.8,1092.4v-1.4c0-0.3,0-0.3-0.3-0.3h-1v-6.2c0-0.2,0-0.3-0.3-0.3h-1.5l-3,2c-0.3,0.2-0.2,0.2-0.1,0.4
	l0.7,1.1c0.1,0.2,0.2,0.2,0.4,0.1l1.2-0.7v3.5h-1.2c-0.3,0-0.3,0-0.3,0.3v1.5c0,0.3,0,0.3,0.3,0.3h4.8
	C353.7,1092.7,353.8,1092.7,353.8,1092.4z M362.1,1088.5c0-1.9-0.7-4.5-3.7-4.5c-2.5,0-3.9,1.9-3.9,4.6c0,2.7,1.4,4.5,3.8,4.5
	C361.4,1093.1,362.1,1090.6,362.1,1088.5z M359.6,1088.8c0,1.8-0.5,2.4-1.2,2.4c-0.6,0-1.2-0.7-1.2-2.5c0-1.9,0.6-2.6,1.2-2.6
	C359.1,1086,359.6,1086.5,359.6,1088.8z"/>
<path fill="#FCEE23" stroke="#231F20" stroke-width="2.4" stroke-miterlimit="22.926" d="M354.5,1112.2l5.7,10l11.4,2.4l-7.8,8.5
	l1.3,11.5l-10.6-4.7l-10.6,4.7l1.3-11.5l-7.8-8.5l11.4-2.4L354.5,1112.2z"/>
<path fill="#231F20" d="M353.5,1134v-1.4c0-0.3,0-0.3-0.3-0.3h-0.9v-6.2c0-0.2,0-0.3-0.3-0.3h-1.5l-3,2c-0.2,0.1-0.2,0.2-0.1,0.4
	l0.7,1.1c0.1,0.2,0.2,0.2,0.4,0.1l1.2-0.7v3.5h-1.2c-0.3,0-0.3,0-0.3,0.3v1.4c0,0.3,0,0.3,0.3,0.3h4.8
	C353.4,1134.3,353.5,1134.2,353.5,1134z M361,1132.1c0-1.9-1.2-3.1-3.1-3.1c-0.4,0-0.8,0-1.1,0.3l0.2-1.2h3.1c0.3,0,0.3,0,0.3-0.3
	v-1.7c0-0.3-0.1-0.3-0.3-0.3h-5c-0.3,0-0.3,0-0.3,0.3l-0.5,4.8c0,0.2,0,0.3,0.2,0.4l1.4,0.4c0.1,0,0.2,0,0.3-0.1
	c0.4-0.4,0.7-0.6,1.4-0.6c0.7,0,1.1,0.4,1.1,1.2c0,1-0.6,1.5-1.7,1.5c-1,0-1.9-0.3-2.1-0.4c-0.1,0-0.3-0.1-0.4,0.1l-0.3,1.6
	c0,0.2,0,0.2,0.2,0.3c0.2,0.1,1.2,0.6,2.6,0.6C359.3,1135.7,361,1134.3,361,1132.1z"/>
<path fill="#E04050" d="M337.3,1182.6h28.1v-14h1.8v-7.9h-31.8v7.9h1.8L337.3,1182.6z"/>
<path fill="#231F20" d="M350.3,1161.7h-13.8v5.1h1.8v14.9h26.2v-14.9h1.8v-5.1C366.3,1161.7,350.3,1161.7,350.3,1161.7z
	 M344.7,1155.1c0.3,1.4,1.5,2.6,5.1,4.2c-0.2-0.4,0-0.4-0.2-0.8c-0.9-1.7-1.9-3.2-3.1-3.8c-0.8-0.4-1.4-0.5-1.6-0.3l-0.1,0.1
	C344.7,1154.6,344.7,1154.8,344.7,1155.1z M353.7,1158.1l-0.4,0.8c1.2-0.5,2.2-1,3.3-1.9c0.4-0.3,0.7-0.6,1-0.9
	c0.3-0.3,0.5-0.6,0.7-1c0.2-0.4,0.4-0.9,0.4-1.3c0-0.2,0-0.3-0.1-0.4h-0.3c-0.5,0-1,0.2-1.3,0.4c-0.6,0.3-1.2,0.9-1.7,1.6
	C354.7,1156.3,354.1,1157.2,353.7,1158.1z M365.7,1183.9h-29.5V1169h-1.8v-9.4h10.7c-0.6-0.7-2.5-1.8-2.8-3.1
	c-0.3-1.4-0.1-1.9,0.5-2.9c0.3-0.5,0.7-0.9,1.2-1.3c2.9-1.3,5.5,0.7,6.9,3.1c0.3,0.5,0.5,1,0.7,1.5l0.2-0.4c0.4-0.8,0.9-1.6,1.5-2.3
	c0.6-0.7,1.2-1.4,1.9-1.9c0.7-0.6,1.6-1,2.6-1.3c0.1,0,0.4-0.1,0.4-0.1h0.3c0.1,0,0.3,0.1,0.5,0.1c1.2,0.4,2,1.2,2.5,2.1
	c-0.4,4.2-3.8,5.4-4.5,6.4h11.7v9.4h-1.8v14.9L365.7,1183.9z"/>
<path fill="#231F20" d="M338.4,1166.8h29.3v2.2h-29.3V1166.8z"/>
<path fill="#231F20" d="M350.6,1159.3h2.4v9.3h-2.4V1159.3z M346.2,1173.2c0-1.6-1.3-2.7-3.2-2.7c-1.4,0-2.5,0.5-3.1,1.6
	c-0.4,0.8-0.5,1-0.5,1.2c0,0.1,0,0.2,0.2,0.2l1.5,0.6c0.2,0.1,0.3-0.1,0.4-0.2c0.2-0.5,0.5-1.3,1.3-1.3c0.5,0,0.8,0.2,0.8,0.7
	c0,0.6-0.8,1-1.3,1.3c-1.3,0.8-2.2,1.4-2.6,2.9c-0.1,0.3-0.1,0.7-0.1,1.5c0,0.2,0,0.2,0.2,0.2h6.1c0.3,0,0.3,0,0.3-0.3v-1.7
	c0-0.3,0-0.3-0.3-0.3h-3.4c0.1-0.3,0.4-0.3,1.2-0.8c0.7-0.4,1.4-0.7,1.9-1.2C345.9,1174.6,346.2,1174.1,346.2,1173.2z M355.1,1175.1
	c0-2-0.7-4.6-3.7-4.6c-2.5,0-4,1.9-4,4.7c0,2.7,1.4,4.6,3.8,4.6C354.3,1179.7,355.1,1177.2,355.1,1175.1z M352.4,1175.3
	c0,1.8-0.5,2.4-1.3,2.4c-0.6,0-1.2-0.7-1.2-2.6s0.6-2.6,1.3-2.6C352,1172.6,352.4,1173.1,352.4,1175.3z M363.9,1175.1
	c0-2-0.7-4.6-3.7-4.6c-2.5,0-4,1.9-4,4.7c0,2.7,1.4,4.6,3.8,4.6C363.2,1179.7,363.9,1177.2,363.9,1175.1z M361.3,1175.3
	c0,1.8-0.5,2.4-1.3,2.4c-0.6,0-1.2-0.7-1.2-2.6s0.6-2.6,1.3-2.6C360.8,1172.6,361.3,1173.1,361.3,1175.3z"/>
<path fill="#E04050" d="M337.3,1219.6h28.1v-14h1.8v-7.9h-31.8v7.9h1.8L337.3,1219.6z"/>
<path fill="#231F20" d="M350.3,1198.7h-13.8v5.1h1.8v14.9h26.2v-14.9h1.8v-5.1C366.3,1198.7,350.3,1198.7,350.3,1198.7z
	 M344.7,1192.1c0.3,1.4,1.5,2.6,5.1,4.2c-0.2-0.4,0-0.4-0.2-0.8c-0.9-1.7-1.9-3.2-3.1-3.8c-0.8-0.4-1.4-0.5-1.6-0.3l-0.1,0.1
	C344.7,1191.6,344.7,1191.8,344.7,1192.1z M353.7,1195.1l-0.4,0.8c1.2-0.5,2.2-1,3.3-1.9c0.4-0.3,0.7-0.6,1-0.9
	c0.3-0.3,0.5-0.6,0.7-1c0.2-0.4,0.4-0.9,0.4-1.3c0-0.2,0-0.3-0.1-0.4h-0.3c-0.5,0-1,0.2-1.3,0.4c-0.6,0.3-1.2,0.9-1.7,1.6
	C354.7,1193.3,354.1,1194.2,353.7,1195.1z M365.7,1220.9h-29.5V1206h-1.8v-9.4h10.7c-0.6-0.7-2.5-1.8-2.8-3.1
	c-0.3-1.4-0.1-1.9,0.5-2.9c0.3-0.5,0.7-0.9,1.2-1.3c2.9-1.3,5.5,0.7,6.9,3.1c0.3,0.5,0.5,1,0.7,1.5l0.2-0.4c0.4-0.8,0.9-1.6,1.5-2.3
	c0.6-0.7,1.2-1.4,1.9-1.9c0.7-0.6,1.6-1,2.6-1.3c0.1,0,0.4-0.1,0.4-0.1h0.3c0.1,0,0.3,0.1,0.5,0.1c1.2,0.4,2,1.2,2.5,2.1
	c-0.4,4.2-3.8,5.4-4.5,6.4h11.7v9.4h-1.8v14.9L365.7,1220.9z"/>
<path fill="#231F20" d="M346.9,1215.8v-1.4c0-0.3,0-0.3-0.3-0.3h-0.9v-6.3c0-0.2,0-0.3-0.3-0.3h-1.6l-3.1,2
	c-0.2,0.1-0.2,0.2-0.1,0.4l0.7,1.2c0.1,0.2,0.2,0.2,0.4,0.1l1.2-0.7v3.6h-1.2c-0.3,0-0.3,0-0.3,0.3v1.4c0,0.3,0,0.3,0.3,0.3h4.8
	C346.9,1216.1,346.9,1216.1,346.9,1215.8z M354.5,1213.9c0-1.9-1.3-3.1-3.2-3.1c-0.4,0-0.8,0-1.1,0.3l0.2-1.2h3.1
	c0.3,0,0.3,0,0.3-0.3v-1.7c0-0.3-0.1-0.3-0.3-0.3h-5c-0.3,0-0.3,0-0.3,0.3l-0.5,4.9c0,0.2,0,0.3,0.2,0.4l1.4,0.4
	c0.1,0,0.2,0,0.3-0.1c0.4-0.4,0.7-0.6,1.4-0.6s1.1,0.4,1.1,1.2c0,1-0.6,1.5-1.7,1.5c-1,0-1.9-0.3-2.1-0.4c-0.1,0-0.3-0.1-0.4,0.1
	l-0.4,1.4c0,0.2,0,0.2,0.2,0.3c0.2,0.1,1.2,0.6,2.7,0.6C352.8,1217.6,354.5,1216.2,354.5,1213.9z M363.2,1211.9c0-2-0.7-4.6-3.7-4.6
	c-2.5,0-4,1.9-4,4.7c0,2.7,1.4,4.6,3.8,4.6C362.4,1216.6,363.2,1214,363.2,1211.9z M360.5,1212.1c0,1.8-0.5,2.4-1.3,2.4
	c-0.6,0-1.2-0.7-1.2-2.6s0.6-2.6,1.3-2.6C360.1,1209.4,360.5,1209.9,360.5,1212.1z M338.4,1203.8h29.3v2.2h-29.3V1203.8z"/>
<path fill="#231F20" d="M351.3,1196.6h2.5v9.2h-2.5V1196.6z"/>
<path fill="#E04050" d="M337.3,1256.6h28.1v-14h1.8v-7.9h-31.8v7.9h1.8L337.3,1256.6z"/>
<path fill="#231F20" d="M350.3,1235.7h-13.8v5.1h1.8v14.9h26.2v-14.9h1.8v-5.1C366.3,1235.7,350.3,1235.7,350.3,1235.7z
	 M344.7,1229.1c0.3,1.4,1.5,2.6,5.1,4.2c-0.2-0.4,0-0.4-0.2-0.8c-0.9-1.7-1.9-3.2-3.1-3.8c-0.8-0.4-1.4-0.5-1.6-0.3l-0.1,0.1
	C344.7,1228.6,344.7,1228.8,344.7,1229.1z M353.7,1232.1l-0.4,0.8c1.2-0.5,2.2-1,3.3-1.9c0.4-0.3,0.7-0.6,1-0.9
	c0.3-0.3,0.5-0.6,0.7-1c0.2-0.4,0.4-0.9,0.4-1.3c0-0.2,0-0.3-0.1-0.4h-0.3c-0.5,0-1,0.2-1.3,0.4c-0.6,0.3-1.2,0.9-1.7,1.6
	C354.7,1230.3,354.1,1231.2,353.7,1232.1z M365.7,1257.9h-29.5V1243h-1.8v-9.4h10.7c-0.6-0.7-2.5-1.8-2.8-3.1
	c-0.3-1.4-0.1-1.9,0.5-2.9c0.3-0.5,0.7-0.9,1.2-1.3c2.9-1.3,5.5,0.7,6.9,3.1c0.3,0.5,0.5,1,0.7,1.5l0.2-0.4c0.4-0.8,0.9-1.6,1.5-2.3
	c0.6-0.7,1.2-1.4,1.9-1.9c0.7-0.6,1.6-1,2.6-1.3c0.1,0,0.4-0.1,0.4-0.1h0.3c0.1,0,0.3,0.1,0.5,0.1c1.2,0.4,2,1.2,2.5,2.1
	c-0.4,4.2-3.8,5.4-4.5,6.4h11.7v9.4h-1.8v14.9L365.7,1257.9z"/>
<path fill="#231F20" d="M338.4,1240.8h29.3v2.2h-29.3V1240.8z"/>
<path fill="#231F20" d="M350.6,1233.3h2.4v9.3h-2.4V1233.3z M346.5,1247.2c0-1.6-1.3-2.7-3.2-2.7c-1.4,0-2.5,0.5-3.1,1.6
	c-0.4,0.8-0.5,1-0.5,1.2c0,0.1,0,0.2,0.2,0.2l1.5,0.6c0.2,0.1,0.3-0.1,0.4-0.2c0.2-0.5,0.5-1.3,1.3-1.3c0.5,0,0.8,0.2,0.8,0.7
	c0,0.6-0.8,1-1.3,1.3c-1.3,0.8-2.2,1.4-2.6,2.9c-0.1,0.3-0.1,0.7-0.1,1.5c0,0.2,0,0.2,0.2,0.2h6.1c0.3,0,0.3,0,0.3-0.3v-1.7
	c0-0.3,0-0.3-0.3-0.3h-3.4c0.1-0.3,0.4-0.3,1.2-0.8c0.7-0.4,1.4-0.7,1.9-1.2C346.1,1248.6,346.5,1248.2,346.5,1247.2z M354.4,1251.1
	c0-1.9-1.3-3.1-3.2-3.1c-0.4,0-0.8,0-1.1,0.3l0.2-1.2h3.1c0.3,0,0.3,0,0.3-0.3v-1.7c0-0.3-0.1-0.3-0.3-0.3h-5c-0.3,0-0.3,0-0.3,0.3
	l-0.5,4.9c0,0.2,0,0.3,0.2,0.4l1.4,0.4c0.1,0,0.2,0,0.3-0.1c0.4-0.4,0.7-0.6,1.4-0.6c0.7,0,1.1,0.4,1.1,1.2c0,1-0.6,1.5-1.7,1.5
	c-1,0-1.9-0.3-2.1-0.4c-0.1,0-0.3-0.1-0.4,0.1l-0.3,1.6c0,0.2,0,0.2,0.2,0.3c0.2,0.1,1.2,0.6,2.7,0.6
	C352.8,1254.8,354.4,1253.4,354.4,1251.1z M363.1,1249.1c0-2-0.7-4.6-3.7-4.6c-2.5,0-4,1.9-4,4.7c0,2.7,1.4,4.6,3.8,4.6
	C362.4,1253.8,363.1,1251.2,363.1,1249.1z M360.5,1249.4c0,1.8-0.5,2.4-1.3,2.4c-0.6,0-1.2-0.7-1.2-2.6c0-1.9,0.6-2.6,1.3-2.6
	C360,1246.6,360.5,1247.1,360.5,1249.4z"/>
<path fill="#E04050" d="M337.3,1293.6h28.1v-14h1.8v-7.9h-31.8v7.9h1.8L337.3,1293.6z"/>
<path fill="#231F20" d="M350.3,1272.7h-13.8v5.1h1.8v14.9h26.2v-14.9h1.8v-5.1C366.3,1272.7,350.3,1272.7,350.3,1272.7z
	 M344.7,1266.1c0.3,1.4,1.5,2.6,5.1,4.2c-0.2-0.4,0-0.4-0.2-0.8c-0.9-1.7-1.9-3.2-3.1-3.8c-0.8-0.4-1.4-0.5-1.6-0.3l-0.1,0.1
	C344.7,1265.6,344.7,1265.8,344.7,1266.1z M353.7,1269.1l-0.4,0.8c1.2-0.5,2.2-1,3.3-1.9c0.4-0.3,0.7-0.6,1-0.9
	c0.3-0.3,0.5-0.6,0.7-1c0.2-0.4,0.4-0.9,0.4-1.3c0-0.2,0-0.3-0.1-0.4h-0.3c-0.5,0-1,0.2-1.3,0.4c-0.6,0.3-1.2,0.9-1.7,1.6
	C354.7,1267.3,354.1,1268.2,353.7,1269.1z M365.7,1294.9h-29.5V1280h-1.8v-9.4h10.7c-0.6-0.7-2.5-1.8-2.8-3.1
	c-0.3-1.4-0.1-1.9,0.5-2.9c0.3-0.5,0.7-0.9,1.2-1.3c2.9-1.3,5.5,0.7,6.9,3.1c0.3,0.5,0.5,1,0.7,1.5l0.2-0.4c0.4-0.8,0.9-1.6,1.5-2.3
	c0.6-0.7,1.2-1.4,1.9-1.9c0.7-0.6,1.6-1,2.6-1.3c0.1,0,0.4-0.1,0.4-0.1h0.3c0.1,0,0.3,0.1,0.5,0.1c1.2,0.4,2,1.2,2.5,2.1
	c-0.4,4.2-3.8,5.4-4.5,6.4h11.7v9.4h-1.8v14.9L365.7,1294.9z"/>
<path fill="#231F20" d="M346,1288.3c0-1-0.6-1.8-1.4-2.3c0.6-0.5,1-1.1,1-1.9c0-1.7-1.4-2.8-3.3-2.8c-1.2,0-2.4,0.5-3,1.6
	c-0.1,0.1-0.1,0.3,0,0.4l1.2,1.1c0.1,0.1,0.2-0.1,0.3-0.2c0.3-0.3,0.7-0.8,1.4-0.8c0.5,0,0.9,0.3,0.9,0.8c0,0.8-0.5,1-1.2,1h-0.4
	c-0.2,0-0.3,0-0.3,0.3v1.4c0,0.3,0.1,0.3,0.3,0.3h0.5c1.2,0,1.5,0.4,1.5,1.1c0,0.7-0.4,1.1-1.3,1.1c-0.8,0-1.8-0.5-2.1-0.6
	c-0.1,0-0.3-0.1-0.3,0l-0.7,1.6c0,0.1,0,0.2,0.1,0.2c0.9,0.7,2.6,0.9,3,0.9C344.4,1291.5,346,1290.2,346,1288.3z M354.7,1285.9
	c0-2-0.7-4.6-3.7-4.6c-2.5,0-4,1.9-4,4.7c0,2.7,1.4,4.6,3.8,4.6C354,1290.6,354.7,1288,354.7,1285.9z M352.1,1286.1
	c0,1.8-0.5,2.4-1.3,2.4c-0.6,0-1.2-0.7-1.2-2.6s0.6-2.6,1.3-2.6C351.6,1283.4,352.1,1283.9,352.1,1286.1z M363.6,1285.9
	c0-2-0.7-4.6-3.7-4.6c-2.5,0-4,1.9-4,4.7c0,2.7,1.4,4.6,3.8,4.6C362.8,1290.6,363.6,1288,363.6,1285.9z M361,1286.1
	c0,1.8-0.5,2.4-1.3,2.4c-0.6,0-1.2-0.7-1.2-2.6s0.6-2.6,1.3-2.6C360.5,1283.4,361,1283.9,361,1286.1z M338.4,1277.8h29.3v2.2h-29.3
	V1277.8z"/>
<path fill="#231F20" d="M351.3,1270.6h2.5v9.2h-2.5V1270.6z"/>
<path d="M344.4,1329.1c2.9-0.3,2.4,2.4,1.1,2.7C343.8,1332.3,342.7,1330.6,344.4,1329.1z M342,1300.4c0.7-0.7,5.3-0.6,6.1,0
	C347.1,1301.1,342.9,1301.2,342,1300.4z M353.1,1301.9c0.6,0.4,0.4-0.5,0.6,0.8c0,3.7,0.4,23.5-0.2,25.4c-1,0.2-16.1,0.5-17-0.2
	l-0.1-11c-1.8,3.7-1.4,2.9-1.4,7.2c0,2.3-0.3,6.8,0.3,8.8c1.6,0.6,17.6,0.6,19,0c1.2-1.2,0.7-6.1,0.7-8v-17.7c0-2.1,0.2-7-0.4-8.3
	c-1.5-0.5-17.7-0.5-19.3,0.1c-0.4,1.3-0.5,10.4-0.3,11.6c0.1,0.5-0.2,10.2,0,10.5c0.2,0.3,1.5-0.4,1.5-2.5l-0.1-5.4v-11.3H353.1z"/>
<path d="M341.1,1312l-0.2,0.5c0.1,0,0.1,0,0.2,0.1c0.2,0,0.7,0.2,1,0.2c0.4,0.1,0.7,0.1,1.1,0.1c-0.1,0.2-0.2,0.4-0.3,0.7
	c-0.1,0.2-0.2,0.5-0.2,0.7v0.3c-0.3-0.1-0.5-0.3-1-0.2c-0.6,0.1-0.6,0.3-0.8,0.4c-1,1.3,0.6,4.2,2.8,3.1c0.3-0.2,0.7-0.6,0.9-0.8
	c0.4-0.6,0.7-1.8,0.2-2.3c-0.6-0.8-1.3-0.4-1.8-0.3c0-0.5,0.2-1,0.5-1.4c0.3-0.6,0.2-0.1,1.3-0.6c0.9-0.4,1.4-1,1.6-2.1
	c0.6,0.9,1,3,1.1,4.2c-0.5-0.2-0.7-0.3-1.3-0.1c-0.4,0.2-0.6,0.5-0.7,0.9c-0.1,0.9,0.3,1.8,1,2.2c0.9,0.6,1.7,0.2,2.4-0.3
	c0.2-0.2,0.5-0.6,0.7-1c0.3-0.7,0.1-0.8,0.1-1.4c-0.3-0.4-0.5-1-1.9-0.4c-0.3-1.5-0.2-2.1-0.9-3.6c-0.1-0.3-0.3-0.7-0.5-1
	c0.2-0.3,0.4-0.4,0.4-0.9h-0.4c-0.1,0.5-0.4,1.2-1,1.2c-0.8,0-2.2-0.6-3.4,0.5C341.3,1311.5,341.4,1311.6,341.1,1312z"/>
<path fill="#FFFFFF" stroke="#FFFFFF" stroke-width="0.353" stroke-miterlimit="22.926" d="M336.3,1366.8v-24.2l2.8-3.4h16.6v27.6
	c-0.4-0.2-1.7-1.8-1.9-1.8c-0.5,0-0.4,0-0.9,0.5l-1.8,1.8c-0.5-0.3-2.2-2.3-2.4-2.3c-0.5,0-0.4,0-0.9,0.5l-0.6,0.6
	c-0.3,0.3-0.9,1-1.2,1.2c-0.3-0.2-0.9-0.9-1.2-1.2c-0.2-0.2-1.1-1.1-1.2-1.1h-0.3c-0.3,0-2,2.1-2.4,2.4c-0.1-0.1-2.2-2.4-2.4-2.4
	h-0.3C337.9,1365,336.6,1366.5,336.3,1366.8z M356.8,1338.2v29.9c0,0.2-0.1,0.4-0.3,0.4h-0.2c-0.4,0-0.3,0-0.8-0.6l-0.9-0.9
	c-0.2-0.3-0.4-0.6-0.8-0.9c-0.3,0.2-0.9,0.9-1.2,1.2c-0.6,0.6-0.9,1.1-1.5,1.1c-0.3,0-1.9-2-2.4-2.3c-0.3,0.2-0.9,0.9-1.2,1.2
	c-0.7,0.7-1,1-1.2,1.1h-0.2c-0.2-0.1-0.4-0.2-0.7-0.6l-0.6-0.6c-0.3-0.3-0.9-1-1.2-1.2l-1.8,1.8c-0.4,0.4-0.2,0.5-0.9,0.5
	c-0.3,0-1.9-2-2.4-2.3c-0.4,0.3-2.1,2.3-2.4,2.3h-0.5c-0.2,0-0.4-0.1-0.4-0.4v-25.7l3.5-3.9L356.8,1338.2
	C356.8,1338.3,356.8,1338.2,356.8,1338.2z"/>
<path fill="#FFFFFF" stroke="#FFFFFF" stroke-width="0.353" stroke-miterlimit="22.926" d="M346.9,1351.2v3.4h-2.8v1h3.8v-4.4H346.9
	z"/>
<path fill="#FFFFFF" d="M344.3,1353h3.4v0.8h-3.4V1353z"/>
<path fill="#FFFFFF" d="M344.3,1353h3.4v0.8h-3.4V1353z"/>
<path fill="#FFFFFF" d="M344.3,1353h3.4v0.8h-3.4V1353z"/>
<path fill="#FFFFFF" d="M344.3,1353h3.4v0.8h-3.4V1353z"/>
<path fill="#FFFFFF" stroke="#FFFFFF" stroke-width="0.352" stroke-miterlimit="22.926" d="M344.6,1353.9v0.8h3.4v0.8h-3.4v2.1h-1.1
	v-2.1h-0.6v-0.8h0.6v-0.8h-0.6v-1h0.6v-3.7h2.6c0.8,0,1.3,0.1,1.7,0.2c0.4,0.1,0.7,0.4,0.9,0.8c0.2,0.4,0.4,0.8,0.4,1.3
	s-0.1,0.9-0.3,1.2c-0.2,0.3-0.4,0.5-0.7,0.7c-0.3,0.2-0.6,0.3-1,0.4c-0.3,0-0.7,0.1-1.1,0.1H344.6z M346,1352.9c0.3,0,0.5,0,0.7-0.1
	c0.2,0,0.4-0.1,0.6-0.2c0.2-0.1,0.3-0.3,0.4-0.4c0.1-0.2,0.2-0.4,0.2-0.7c0-0.2,0-0.5-0.1-0.6c-0.1-0.2-0.2-0.3-0.4-0.4
	c-0.2-0.1-0.4-0.2-0.6-0.2c-0.2,0-0.5-0.1-0.7-0.1h-1.5v2.7H346z"/>
<path fill="#FFFFFF" stroke="#FFFFFF" stroke-width="0.3535" stroke-miterlimit="22.9256" d="M336.3,1401.8v-24.2l2.8-3.4h16.6v27.6
	c-0.4-0.2-1.7-1.8-1.9-1.8c-0.5,0-0.4,0-0.9,0.5l-1.8,1.8c-0.5-0.3-2.2-2.3-2.4-2.3c-0.5,0-0.4,0-0.9,0.5l-0.6,0.6
	c-0.3,0.3-0.9,1-1.2,1.2c-0.3-0.2-0.9-0.9-1.2-1.2c-0.2-0.2-1.1-1.1-1.2-1.1h-0.3c-0.3,0-2,2.1-2.4,2.4c-0.1-0.1-2.2-2.4-2.4-2.4
	h-0.3C337.9,1400,336.6,1401.5,336.3,1401.8z M356.8,1373.2v29.9c0,0.2-0.1,0.4-0.3,0.4h-0.2c-0.4,0-0.3,0-0.8-0.6l-0.9-0.9
	c-0.2-0.3-0.4-0.6-0.8-0.9c-0.3,0.2-0.9,0.9-1.2,1.2c-0.6,0.6-0.9,1.1-1.5,1.1c-0.3,0-1.9-2-2.4-2.3c-0.3,0.2-0.9,0.9-1.2,1.2
	c-0.7,0.7-1,1-1.2,1.1h-0.2c-0.2-0.1-0.4-0.2-0.7-0.6l-0.6-0.6c-0.3-0.3-0.9-1-1.2-1.2l-1.8,1.8c-0.4,0.4-0.2,0.5-0.9,0.5
	c-0.3,0-1.9-2-2.4-2.3c-0.4,0.3-2.1,2.3-2.4,2.3h-0.5c-0.2,0-0.4-0.1-0.4-0.4v-25.7l3.5-3.9h18.1
	C356.8,1373.3,356.8,1373.2,356.8,1373.2z"/>
<path id="XMLID_72_" fill="#FFFFFF" stroke="#FFFFFF" stroke-width="0.3535" stroke-miterlimit="22.9256" d="M346.9,1386.2v3.4h-2.8
	v1h3.8v-4.4C347.9,1386.2,346.9,1386.2,346.9,1386.2z"/>
<path id="XMLID_71_" fill="#FFFFFF" d="M344.3,1388h3.4v0.8h-3.4V1388z"/>
<path id="XMLID_70_" fill="#FFFFFF" d="M344.3,1388h3.4v0.8h-3.4V1388z"/>
<path id="XMLID_69_" fill="#FFFFFF" d="M344.3,1388h3.4v0.8h-3.4V1388z"/>
<path id="XMLID_68_" fill="#FFFFFF" d="M344.3,1388h3.4v0.8h-3.4V1388z"/>
<path fill="#FFFFFF" stroke="#FFFFFF" stroke-width="0.3523" stroke-miterlimit="22.9256" d="M344.6,1388.9v0.8h3.4v0.8h-3.4v2.1
	h-1.1v-2.1h-0.6v-0.8h0.6v-0.8h-0.6v-1h0.6v-3.7h2.6c0.8,0,1.3,0.1,1.7,0.2c0.4,0.1,0.7,0.4,0.9,0.8c0.2,0.4,0.4,0.8,0.4,1.3
	s-0.1,0.9-0.3,1.2c-0.2,0.3-0.4,0.5-0.7,0.7c-0.3,0.2-0.6,0.3-1,0.4c-0.3,0-0.7,0.1-1.1,0.1H344.6z M346,1387.9c0.3,0,0.5,0,0.7-0.1
	c0.2,0,0.4-0.1,0.6-0.2c0.2-0.1,0.3-0.3,0.4-0.4c0.1-0.2,0.2-0.4,0.2-0.7c0-0.2,0-0.5-0.1-0.6c-0.1-0.2-0.2-0.3-0.4-0.4
	c-0.2-0.1-0.4-0.2-0.6-0.2c-0.2,0-0.5-0.1-0.7-0.1h-1.5v2.7H346z"/>
<path fill="#E04050" d="M337.2,1435.5h24.6v-12.2h1.6v-7h-27.8v7h1.6C337.2,1423.3,337.2,1435.5,337.2,1435.5z"/>
<path fill="#231F20" d="M348.5,1417.2h-12v4.5h1.6v13.1H361v-13.1h1.6v-4.5H348.5z M343.6,1411.4c0.3,1.2,1.3,2.3,4.4,3.7
	c-0.2-0.4,0-0.3-0.2-0.7c-0.8-1.5-1.7-2.8-2.7-3.4c-0.7-0.4-1.2-0.4-1.4-0.3l-0.1,0.1V1411.4z M351.5,1414.1l-0.3,0.7
	c1.1-0.5,1.9-0.9,2.9-1.7c0.3-0.2,0.6-0.5,0.9-0.8c0.2-0.2,0.5-0.5,0.6-0.8c0.2-0.3,0.3-0.7,0.4-1.1c0-0.2,0-0.3-0.1-0.4h-0.3
	c-0.4,0-0.9,0.2-1.2,0.4c-0.5,0.3-1,0.8-1.5,1.4C352.3,1412.5,351.8,1413.3,351.5,1414.1z M362,1436.7h-25.8v-13.1h-1.6v-8.2h9.4
	c-0.5-0.6-2.2-1.6-2.4-2.7c-0.3-1.3-0.1-1.8,0.4-2.6c0.3-0.4,0.6-0.8,1.1-1.1c2.5-1.1,4.8,0.6,6,2.7c0.2,0.4,0.5,0.9,0.6,1.4
	l0.2-0.4c0.4-0.7,0.8-1.4,1.3-2c0.5-0.6,1-1.2,1.6-1.7c0.6-0.6,1.3-0.9,2.2-1.2c0.1,0,0.3-0.1,0.4-0.1h0.3c0.1,0,0.3,0.1,0.4,0.1
	c1,0.3,1.8,1,2.2,1.9c-0.4,3.7-3.3,4.7-4,5.6h10.2v8.3h-1.6v13.1H362z"/>
<path fill="#231F20" d="M336.9,1421.7h25.6v1.9h-25.6V1421.7z M346.3,1424.7c-0.3,0-0.3,0.1-0.3,0.3v1.4c0,0.2,0,0.2,0.2,0.2h0.5
	v5.4h-0.5c-0.2,0-0.2,0-0.2,0.2v1.6c0,0.2,0.1,0.2,0.2,0.2h3.6c1,0,2-0.1,2.8-0.8c0.4-0.4,0.8-1.1,0.8-2.2s-0.4-1.7-0.8-2.1
	c-0.7-0.7-1.7-0.7-2.5-0.7h-0.8v-1.5h1.4v0.5c0,0.2,0.1,0.2,0.2,0.2h1.7c0.2,0,0.2,0,0.2-0.2v-2.4c0-0.2,0-0.2-0.2-0.2
	C352.6,1424.6,346.3,1424.7,346.3,1424.7z M349.3,1430.1h0.3c0.7,0,0.9,0.1,1,0.2c0.3,0.2,0.3,0.6,0.3,0.8c0,0.2,0,0.6-0.3,0.8
	c-0.3,0.2-0.7,0.2-1.1,0.2h-0.2V1430.1z"/>
<path fill="#231F20" d="M348.6,1415.8h1.9v7.4h-1.9V1415.8z"/>
</svg>
